<?xml version="1.0" encoding="UTF-8" standalone="no"?>
<!-- Created with Inkscape (http://www.inkscape.org/) -->

<svg
   width="198.69102mm"
   height="118.22292mm"
   viewBox="0 0 198.69102 118.22292"
   version="1.1"
   id="svg667"
   inkscape:version="1.2.2 (b0a8486541, 2022-12-01)"
   sodipodi:docname="aventura-ecuestre-icon.svg"
   xmlns:inkscape="http://www.inkscape.org/namespaces/inkscape"
   xmlns:sodipodi="http://sodipodi.sourceforge.net/DTD/sodipodi-0.dtd"
   xmlns="http://www.w3.org/2000/svg"
   xmlns:svg="http://www.w3.org/2000/svg">
  <sodipodi:namedview
     id="namedview669"
     pagecolor="#ffffff"
     bordercolor="#000000"
     borderopacity="0.25"
     inkscape:showpageshadow="2"
     inkscape:pageopacity="0.0"
     inkscape:pagecheckerboard="0"
     inkscape:deskcolor="#d1d1d1"
     inkscape:document-units="mm"
     showgrid="false"
     inkscape:zoom="0.69931958"
     inkscape:cx="378.93977"
     inkscape:cy="423.98355"
     inkscape:window-width="1854"
     inkscape:window-height="1011"
     inkscape:window-x="0"
     inkscape:window-y="0"
     inkscape:window-maximized="1"
     inkscape:current-layer="layer1" />
  <defs
     id="defs664" />
  <g
     inkscape:label="Capa 1"
     inkscape:groupmode="layer"
     id="layer1"
     transform="translate(-5.0774074,-36.609566)">
    <path
       fill-rule="evenodd"
       fill="#1a1a18"
       fill-opacity="1"
       d="m 121.74861,113.0266 5.48739,1.40394 c -1.60628,0.80224 -4.01419,0.60166 -5.48739,-1.40394 z m -40.271787,-5.61571 c 0.668517,-1.40393 2.274804,-3.20897 3.611832,-3.81065 l 2.005544,3.61009 -0.668514,1.0028 c -1.470115,0.40113 -4.014185,-0.40112 -4.948862,-0.80224 z m -25.019766,1.00281 c -1.473205,0 -2.810232,-0.60169 -3.212586,-2.00562 1.337031,0.20058 2.540979,1.00281 3.212586,2.00562 z m 8.025267,-8.22301 c -0.399254,1.00281 -0.133079,0.80225 -1.067768,0.40113 0.399254,-0.20058 -0.136163,-0.802251 1.067768,-0.40113 z m 43.620566,-8.624116 c 0.26622,-1.403928 0,-0.802241 0.80159,-1.604488 0,-0.200576 0.80158,-0.802241 0.93778,-1.002811 0.13296,1.604488 -0.66851,2.005618 -1.73937,2.607299 z M 69.567367,89.159845 c -0.133079,-2.008897 -0.133079,-1.203367 0.668513,-2.406735 0.804689,0.200576 1.60629,0.397838 2.141719,1.400635 -1.203942,1.20666 -1.739374,1.0061 -2.810232,1.0061 z m 20.203986,-8.025728 c 0.937773,-0.401121 0.801598,0.601677 2.943314,-1.002811 l 1.070858,-1.203358 c 0.668508,-1.805057 -0.40235,-1.002807 0.668508,-2.005617 0.668538,-0.601678 0.937779,-1.002798 2.008637,-1.203358 1.337046,1.203358 0.532345,1.203358 1.203967,2.406728 0.399236,0.601678 4.948853,2.607295 3.209493,6.618508 -0.53543,1.20666 -3.076414,2.406739 -4.014194,3.011708 -7.892182,4.011217 -10.569336,-4.813463 -7.090583,-6.6218 z M 78.397325,78.125701 c -0.532339,-1.20337 1.203943,-1.20337 -0.532339,-2.406728 l 1.872457,0.40112 c -0.269272,1.203368 -0.269272,1.604488 -1.340118,2.005608 z M 67.827986,75.919533 c 0.402353,-1.002807 0.269271,-0.601687 0.804698,-1.203367 0.668513,-0.601681 0.532329,-0.601681 1.203942,-1.002808 l -0.535429,1.805045 z m 13.113408,-3.409536 c -1.070867,0 -1.203951,0 -2.00864,-0.401126 C 78.26424,71.70775 78.26424,71.30663 77.998071,71.10607 c 2.407885,0 2.674058,-0.802247 2.943323,1.403927 z m -3.478752,-4.612903 c 2.407885,-1.805048 0.668514,0.200576 4.280345,-3.008415 l 0.535438,-0.401121 c -0.133079,2.607289 -0.266188,1.403928 -1.203952,3.008416 -0.133079,0.200576 -0.133079,0.200576 -0.133079,0.40112 -0.133078,0 0,1.002801 -0.269271,0.40112 0,0 -0.133079,0.200577 -0.133079,0.401121 -0.937773,0.200576 -1.470112,-0.401121 -3.076402,-0.802241 z M 87.629628,42.62641 c 2.00864,-0.601681 4.014181,-0.601681 6.022819,-1.805048 -0.535429,-0.40112 -1.34013,-0.200576 -2.141716,-0.200576 -0.801605,0 -1.606294,0 -2.407892,0 -1.739381,-0.200576 -2.407894,-0.802244 -4.280354,-1.203368 -4.014175,-1.002804 -2.677145,-2.807852 -7.226758,-2.807852 -3.611832,0 -4.682699,2.406732 -4.416529,6.618512 0.402344,4.011219 1.473211,4.41234 4.150359,6.016827 2.674055,1.403928 1.337028,10.028047 -0.136163,12.434782 -3.342571,6.016831 -8.560698,2.206169 -10.300073,2.005608 l -0.136193,-1.0028 c 2.943323,-0.401127 8.161441,-1.403928 10.037,-3.810663 -0.937776,-0.60168 -4.283444,1.203367 -6.022819,0.802247 1.340121,-1.805048 6.155904,-3.810662 5.886644,-4.813463 -2.271713,-0.601687 -6.285898,2.406728 -8.963043,2.406728 -4.014184,0.200576 -6.555157,-0.200544 -9.767741,1.002808 0.133079,-1.203368 1.473212,-2.406735 2.274804,-3.008416 3.076408,-1.805048 9.365394,0.601681 10.971684,-4.011223 -2.540973,0.802248 -3.478747,2.005615 -6.422073,1.203368 -2.54407,-0.601681 -5.218128,-0.40112 -8.161442,0 0.668514,-1.805048 1.606287,-2.206168 3.209484,-2.807855 l 1.340127,-0.802241 c -1.875556,-1.805048 -4.682696,1.00281 -5.889738,2.206168 -1.33703,1.604488 -4.546517,2.607295 -6.422064,3.208976 0.671604,-1.203361 2.274804,-1.805048 3.212577,-2.607289 -1.070858,-1.002807 -2.005544,-0.802247 -3.478746,0 -2.677154,1.203361 -5.753556,6.819072 -8.696874,5.816264 L 39.32947,54.660072 c -1.473202,0.80224 -1.070858,2.206168 -2.274801,3.810656 -2.810232,4.211782 -2.274803,1.403927 -6.019725,8.624119 -0.668517,1.203367 -0.668517,1.002807 -0.804689,2.206175 1.606287,-0.802247 0.804689,-1.403928 2.81023,-1.805048 -0.133079,8.222999 -4.014176,23.870039 2.810242,25.073407 10.033901,1.805048 4.54961,-8.627409 10.170082,-8.025729 2.271704,5.819554 -2.141725,10.432457 -2.54407,19.056588 -0.133078,2.20616 0.668514,4.41233 0.668514,6.81906 -6.555155,4.6129 -14.716599,6.81908 -20.337071,12.43479 -2.407885,2.40673 -7.223668,4.01121 -10.166986,6.21739 -2.141725,1.60448 -7.3598429,1.80505 -8.5637886,8.22301 1.8724594,0 7.0905776,0.20042 8.4276046,-0.40115 2.008644,-1.20336 0.671613,-4.0112 3.8811,-5.21457 1.070858,-0.40112 2.141725,-0.40112 3.076402,-1.20339 1.473212,-1.00278 4.685795,-6.81904 13.515753,-7.82186 6.152805,-0.80224 15.521288,-3.00842 21.407929,-2.40672 0.801602,5.41514 1.470115,14.44039 0.801602,20.05608 -0.402348,4.01123 0.133078,5.21459 -2.407889,7.82189 -0.937782,1.00279 -5.620471,5.81626 -2.677154,6.6185 0.804689,0.20074 -0.266157,0 0.668514,0 h 5.354302 c 0.535429,-1.00281 0.266157,-1.20336 0.801598,-2.20617 1.070858,-2.00561 1.739372,-3.61009 1.606287,-6.41796 -0.133078,-3.61008 -0.269271,-4.21178 0.668517,-8.42353 1.203949,-4.41235 1.739381,-9.02525 3.212583,-13.43761 2.407889,-7.01962 0.266158,-3.20896 16.186712,-5.41514 2.544072,-0.40112 4.283444,-0.80224 6.691332,-1.20336 17.26067,-2.80784 17.12759,-10.62973 29.30321,-1.20336 3.74492,2.80784 6.68822,3.61008 11.23784,4.81347 l 6.28899,1.60448 c 4.41343,1.40391 7.0906,2.60727 9.3654,6.81908 0.93778,1.80503 2.40787,3.00839 3.07641,5.01402 0.93778,2.6073 0.53543,3.20897 -0.39927,5.81626 -0.8047,2.00561 -0.93778,4.6129 -0.53543,7.2202 0.9347,0.20042 4.94886,-1.00281 6.01972,-1.60451 0,-3.20896 -1.73937,-2.20615 -0.53543,-5.61569 0.93778,-2.60729 -0.26622,-4.01123 0.93778,-6.01683 1.33704,-1.20336 6.42209,0.20073 8.29453,-2.40673 -0.6685,-1.40393 -1.47012,-1.20336 -2.81025,-2.40672 -0.66851,-0.60169 -1.87244,-1.80505 -2.67403,-2.00563 -1.60629,-0.40112 -2.67715,0.80224 -4.41654,-0.60167 -3.34565,-2.60729 -3.20949,-6.81907 -3.74492,-11.03085 -0.40235,-2.80785 0,-5.2146 -2.54407,-6.21742 l -7.35984,-2.60727 c -2.54098,-0.80225 -3.61184,-2.40674 -3.47876,-5.81627 0.40235,-11.632534 -0.13296,-6.618511 -2.00552,-16.850408 2.9433,0.200545 4.01416,1.808338 5.62047,3.412826 0.66851,0.80224 1.4701,1.604487 2.13861,2.206168 l 11.10787,10.830294 c 4.54651,4.81346 10.97169,13.23702 18.86384,15.64374 -0.26621,-1.4039 -1.20393,-1.80502 -2.14171,-2.80784 -0.80159,-1.00282 -1.4701,-1.60448 -2.00556,-2.80784 2.00556,1.00278 2.94334,2.40672 5.21813,3.40954 4.81581,2.40672 17.26067,4.81344 20.87251,0.80224 l -1.47321,-0.6017 c -2.80714,-0.60166 -6.42206,0.40112 -9.09612,-0.40112 l -2.67715,-0.80224 c 2.14172,-0.20042 20.7394,1.40394 26.49296,-1.80506 -0.93775,-1.00278 0.39926,-0.60166 -1.33702,-0.60166 l -0.8047,0.20041 c -0.13296,0 -0.26621,0 -0.26621,0 -0.93778,0.20074 -2.00864,0 -2.54407,0.20074 -1.20394,0 -2.54098,0.20042 -3.34257,-0.6017 3.47876,-1.40393 5.48428,-1.40393 7.48984,-4.6129 -3.61184,0 -6.15282,2.40674 -10.70244,1.80505 3.74494,-1.80505 9.90082,-2.20616 12.04254,-6.21739 -4.41651,0.80225 -7.35985,2.40674 -13.37956,2.00562 l -11.10785,-1.60449 c -1.47012,-0.20058 -2.00555,-0.60169 -3.34256,-1.00281 -4.6827,-1.00281 -8.16146,-2.807856 -12.30873,-5.014022 -4.81886,-2.406738 -12.98032,-9.626926 -16.72524,-13.841992 -7.49292,-8.423569 -13.37956,-0.60169 -23.95201,-4.612903 -9.90079,-3.610096 -19.00003,1.403927 -21.13863,0.60168 -4.014194,-3.008415 -0.53546,-6.417951 -2.54407,-8.824679 -0.934695,0.60168 -1.067774,1.002801 -2.138632,1.403927 -0.937779,-1.403927 -1.203966,-3.409535 -1.739396,-5.014023 -0.937779,-2.807855 -6.155888,-10.629734 -6.155888,-12.234222 1.872456,2.607295 9.365378,5.214584 12.577986,5.415144 4.54959,0.401127 11.37092,-1.805048 12.9772,-5.014024 -3.20949,0.802247 -5.75355,3.008416 -9.49847,2.607295 0.53543,-0.802247 2.14171,-1.604487 2.94333,-2.005608 4.81578,-3.208975 -0.53543,-1.203367 -2.67714,-0.802247 -1.60632,0.200545 -4.0142,0.200545 -5.48432,-0.80224 1.33705,-1.805055 3.07641,-2.206175 3.47876,-5.214591 -2.54406,1.805048 -1.73936,2.406735 -6.022826,2.406735 0.402351,-2.005605 2.943336,-2.607295 3.478766,-4.612903 -1.067778,-0.401117 -1.470128,0 -2.807144,0.200576 0.801587,-1.604488 1.203937,-0.802237 1.739366,-2.005608 -1.203937,0.40112 -4.682698,0.802241 -6.558257,0.802241 0.668538,-1.002804 1.34013,-1.403925 1.739396,-2.406729 -2.540982,0.802244 -4.682704,1.805048 -7.492943,0.401121"
       id="path391"
       style="stroke-width:0.816632" />
    <path
       fill-rule="evenodd"
       fill="#ffffff"
       fill-opacity="1"
       d="m 96.46267,75.718973 c -1.070858,0.200576 -1.340099,0.60168 -2.008637,1.203358 -1.070858,1.00281 0,0.200544 -0.668508,2.005617 l -1.070858,1.203358 c -2.141716,1.604488 -2.005541,0.60169 -2.943314,1.002811 -3.478753,1.808337 -0.801599,10.633017 7.090583,6.6218 0.93778,-0.604969 3.478764,-1.805048 4.014194,-3.011708 1.73936,-4.011213 -2.810257,-6.01683 -3.209493,-6.618508 -0.671622,-1.20337 0.132959,-1.20337 -1.203967,-2.406728"
       id="path393"
       style="stroke-width:0.816632" />
    <path
       fill-rule="evenodd"
       fill="#ffffff"
       fill-opacity="1"
       d="m 81.476823,107.41089 c 0.934677,0.40112 3.478747,1.20337 4.948862,0.80224 l 0.668514,-1.0028 -2.005544,-3.61009 c -1.337028,0.60168 -2.943315,2.40672 -3.611832,3.81065"
       id="path395"
       style="stroke-width:0.816632" />
    <path
       fill-rule="evenodd"
       fill="#ffffff"
       fill-opacity="1"
       d="m 77.462642,67.897094 c 1.606287,0.40112 2.138626,1.002801 3.076399,0.802241 0,-0.200576 0.133079,-0.401121 0.133079,-0.401121 0.269271,0.601681 0.136193,-0.40112 0.269271,-0.40112 0,-0.200576 0,-0.200576 0.133079,-0.40112 0.937779,-1.604488 1.070867,-0.401127 1.203952,-3.008416 l -0.535438,0.401121 c -3.611831,3.208975 -1.87246,1.203367 -4.280345,3.008415"
       id="path397"
       style="stroke-width:0.816632" />
    <path
       fill-rule="evenodd"
       fill="#ffffff"
       fill-opacity="1"
       d="m 69.567367,89.159845 c 1.070858,0 1.60629,0.200576 2.810232,-1.0061 -0.535429,-1.002797 -1.33703,-1.200075 -2.141719,-1.400635 -0.801598,1.203368 -0.801598,0.397838 -0.668513,2.406735"
       id="path399"
       style="stroke-width:0.816632" />
    <path
       fill-rule="evenodd"
       fill="#ffffff"
       fill-opacity="1"
       d="m 121.74861,113.0266 c 1.4732,2.0056 3.88111,2.20618 5.48739,1.40394 z m 0,0"
       id="path401"
       style="stroke-width:0.816632" />
    <path
       fill-rule="evenodd"
       fill="#ffffff"
       fill-opacity="1"
       d="m 77.998071,71.10607 c 0.266157,0.200544 0.266157,0.60168 0.934683,1.002801 0.804689,0.401126 0.937773,0.401126 2.00864,0.401126 -0.269271,-2.206174 -0.535438,-1.403927 -2.943323,-1.403927"
       id="path403"
       style="stroke-width:0.816632" />
    <path
       fill-rule="evenodd"
       fill="#ffffff"
       fill-opacity="1"
       d="m 56.457057,108.4137 c -0.671607,-1.00281 -1.875555,-1.80506 -3.212586,-2.00562 0.402354,1.40393 1.739381,2.00562 3.212586,2.00562"
       id="path405"
       style="stroke-width:0.816632" />
    <path
       fill-rule="evenodd"
       fill="#ffffff"
       fill-opacity="1"
       d="m 78.397325,78.125701 c 1.070858,-0.40112 1.070858,-0.80224 1.340118,-2.005608 l -1.872457,-0.40112 c 1.736282,1.203358 0,1.203358 0.532339,2.406728"
       id="path407"
       style="stroke-width:0.816632" />
    <path
       fill-rule="evenodd"
       fill="#ffffff"
       fill-opacity="1"
       d="m 108.10289,91.566574 c 1.07086,-0.601681 1.87245,-1.002811 1.73937,-2.607299 -0.13626,0.200576 -0.93778,0.802251 -0.93778,1.002811 -0.80159,0.802247 -0.53543,0.200576 -0.80159,1.604488"
       id="path409"
       style="stroke-width:0.816632" />
    <path
       fill-rule="evenodd"
       fill="#ffffff"
       fill-opacity="1"
       d="m 67.827986,75.919533 1.473211,-0.40113 0.535429,-1.805045 c -0.671613,0.401127 -0.535429,0.401127 -1.203942,1.002808 -0.535429,0.60168 -0.402345,0.200576 -0.804698,1.203367"
       id="path411"
       style="stroke-width:0.816632" />
    <path
       fill-rule="evenodd"
       fill="#ffffff"
       fill-opacity="1"
       d="m 63.414556,100.59182 c 0.934683,0.40112 0.668514,0.60168 1.067768,-0.40113 -1.203943,-0.401121 -0.668514,0.20058 -1.067768,0.40113"
       id="path413"
       style="stroke-width:0.816632" />
  </g>
</svg>
