<?xml version="1.0" encoding="UTF-8" standalone="no"?>
<!-- Created with Inkscape (http://www.inkscape.org/) -->

<svg
   width="151.041mm"
   height="115.98299mm"
   viewBox="0 0 151.041 115.98299"
   version="1.1"
   id="svg2186"
   inkscape:version="1.2.2 (b0a8486541, 2022-12-01)"
   sodipodi:docname="aventura-ecuestre-logo.svg"
   xmlns:inkscape="http://www.inkscape.org/namespaces/inkscape"
   xmlns:sodipodi="http://sodipodi.sourceforge.net/DTD/sodipodi-0.dtd"
   xmlns="http://www.w3.org/2000/svg"
   xmlns:svg="http://www.w3.org/2000/svg">
  <sodipodi:namedview
     id="namedview2188"
     pagecolor="#ffffff"
     bordercolor="#000000"
     borderopacity="0.25"
     inkscape:showpageshadow="2"
     inkscape:pageopacity="0.0"
     inkscape:pagecheckerboard="0"
     inkscape:deskcolor="#d1d1d1"
     inkscape:document-units="mm"
     showgrid="false"
     inkscape:zoom="0.69931958"
     inkscape:cx="188.7549"
     inkscape:cy="398.24424"
     inkscape:window-width="1854"
     inkscape:window-height="1011"
     inkscape:window-x="0"
     inkscape:window-y="0"
     inkscape:window-maximized="1"
     inkscape:current-layer="layer1" />
  <defs
     id="defs2183" />
  <g
     inkscape:label="Capa 1"
     inkscape:groupmode="layer"
     id="layer1"
     transform="translate(-55.386462,-43.405035)">
    <path
       fill-rule="evenodd"
       fill="#1a1a18"
       fill-opacity="1"
       d="m 113.59075,64.912457 -1.07384,0.891934 c 0.1261,0.133326 0.1261,0.04444 0.18914,0.312126 0.063,0.223242 0,0.223242 0.063,0.445453 -1.07384,0.3576 -1.32706,0.08992 -1.57924,-0.177769 -0.63252,-0.62425 -0.8847,-0.04444 -1.45417,-0.356568 l 2.21175,-1.249534 c 0.56947,-0.267685 1.07487,-0.579811 1.39113,-1.159619 l 0.37827,-0.624252 c 0.0641,0.40101 0.12713,1.560628 -0.12609,1.918229 z m -11.43806,3.255615 c 0.63149,-0.04444 0.75758,0.134359 0.63149,0.62425 -0.0631,0.04548 -0.0631,0.08992 -0.25322,0.08992 -0.56844,0 -0.063,0.04444 -0.31522,-0.08992 z m 2.84324,0.267685 c 0,0.490926 -0.25218,0.490926 -0.44235,1.070734 -0.37931,0.980818 -0.25218,2.409156 -1.8955,2.31924 -0.063,-0.891937 0.82166,-0.936379 1.32706,-1.560629 0.82165,-1.070737 0.12609,-1.740464 1.01079,-1.829345 z m 5.30923,5.308203 c -0.0641,-1.070737 0.31523,-0.758611 0.63149,-1.293979 -0.25321,-1.115177 -0.37931,-0.222208 -0.75861,-1.025261 0.5054,-0.134358 1.45417,-0.134358 1.89653,0.223242 l -0.44236,0.936377 c 0,0 0,0.04444 0,0.04444 -0.19017,0.624252 -0.50642,0.535368 -0.82165,0.668694 l -0.44235,0.357601 c 0,0.04444 0,0.08888 -0.0631,0.08888 z m 12.32277,-1.293979 c 1.01182,-0.08888 1.01182,-0.891935 1.51721,-1.115177 0.69454,-0.356568 1.13689,0.625285 1.32706,1.115177 0.50539,1.829345 1.32705,0.3576 2.33784,2.542481 0.063,0.08992 0.063,0.04547 0.12609,0.178801 l 0.19017,1.070734 c 0,0 0,0.04444 0,0.04444 l 0.063,0.535368 c 0,1.606103 -0.063,1.338419 -1.39009,2.185914 -1.70636,1.159618 -3.47576,2.230355 -5.62447,1.917194 -1.32705,-0.222207 -3.09645,-1.917194 -3.09645,-3.434416 0,-0.177765 0.0631,-0.356565 0.18914,-0.445449 0.12609,-0.223243 -0.0631,0 0.12609,-0.178801 0.063,-0.04444 0.063,-0.04444 0.063,-0.08888 0.56948,-0.57981 0.44339,-1.38286 1.20096,-1.517218 0.5054,-0.133327 0.19017,0.134358 0.75861,-0.04444 1.01079,-0.267685 1.45315,-0.803053 2.33888,-1.471745 0,-0.223242 -0.0641,-1.159621 -0.12712,-1.293979 z m -12.32277,1.293979 c -0.44338,3.92534 -1.01182,2.542479 -1.32808,4.32635 -0.063,0.579811 -0.063,1.205095 -0.31523,1.561661 -0.3793,-0.267684 -0.12712,-1.606103 0,-2.007111 0.0631,-0.267684 1.13689,-1.829348 1.13689,-3.613216 z m -3.85506,6.735506 c -0.31626,0.490926 -0.69556,0.535368 -1.20096,0.713134 -0.63252,0.223242 -0.63252,0.3576 -1.264,0 -0.12713,-0.802019 0.063,-1.516187 0.63148,-1.828313 0,0 1.45418,0 1.83348,1.115179 z m 28.43858,0.133323 c 0.063,0.04444 0.31522,0.08992 0.3793,0.357603 0,0.08888 -0.0641,0.267684 -0.12712,0.401008 -0.25218,0.535368 -0.8847,0.981853 -1.20096,1.427303 -0.31523,0.490926 -0.12609,0.624252 -0.56844,0.847494 0.44235,-1.828313 -0.25219,-0.847494 1.13791,-2.408121 0.25218,-0.357603 0.12609,-0.357603 0.37931,-0.625287 z m -1.51722,2.988966 0.31626,0.713134 c 0.063,0.357601 0.12609,0.134358 -0.0631,0.402043 -0.31626,-0.1788 -0.25321,-0.668692 -0.25321,-1.115177 z m -32.79904,5.575888 c -0.12609,0.133323 -0.063,0.04444 -0.19017,0.267684 -0.12609,0.177765 -0.063,0.133323 -0.12609,0.267684 -0.758606,-0.08992 -0.631481,0 -1.010786,-0.267684 0.189135,-0.446485 0.694532,-0.937411 1.010786,-0.625285 z m 13.14442,4.281908 c 0.25322,-0.312127 0.44235,-0.535369 0.75861,-0.847492 0.63252,-0.624253 0.8847,-1.11518 1.7694,-1.29398 l 0.31626,0.714169 c 0.44235,1.427303 0.63252,1.070737 1.32705,1.739429 -0.18913,2.274798 -4.8028,0.668692 -4.8028,0.668692 -0.063,-0.62425 0.25321,-0.62425 0.63148,-0.980818 z m -22.37176,0.223242 c 1.137915,-0.356566 1.20096,0.133326 1.959571,0.489892 l 1.137914,0.75861 c -1.07487,0.714169 -2.907315,-0.445449 -3.097485,-1.248502 z m 57.13036,5.218287 c -0.12609,0.490926 0.0631,0.402042 -0.56844,0.535368 -0.69556,0.134358 -1.20096,0.08888 -1.95957,-0.04444 -1.39009,-0.312126 -2.08463,-0.535368 -1.95854,-1.427302 0.63149,0.08888 1.51619,0.401007 2.2748,0.579808 0.44235,0.08888 1.95957,0.267684 2.21175,0.356568 z m 13.27154,24.1763 4.61368,-1.33842 c -0.0631,-0.75758 -0.5054,-1.33738 -0.82166,-2.05155 -0.5054,-1.33842 0.0631,-1.4273 0.3793,-2.2748 0.5054,-1.02629 0.0631,-2.05155 0.18914,-3.25665 0,-0.22221 0.0631,-0.40101 0.12713,-0.57981 0.18913,-0.31212 0.25218,-0.31212 0.44235,-0.40101 1.83244,0 5.37124,-0.44648 6.25594,-1.51618 -0.69453,-0.62529 -1.07383,-0.75861 -1.6433,-1.2051 -0.88471,-0.71313 -1.95854,-1.33842 -2.7802,-2.09599 -0.56844,0.22324 -0.3793,0.40101 -1.20096,0.35656 -1.20096,-0.13332 -1.3901,-0.0444 -2.1487,-0.71313 -0.44236,-0.3576 -0.69453,-0.53537 -1.0108,-1.0263 -2.40192,-3.74654 -1.58026,-8.787054 -2.33887,-10.258799 -0.0631,-0.134361 -0.5054,-0.580845 -0.75758,-0.758611 -0.3793,-0.356568 -0.63252,-0.267684 -1.20096,-0.446484 l -5.68751,-1.783871 c -0.25321,-0.08888 -0.88573,-0.446484 -1.01182,-0.62425 -1.7694,-1.427305 -0.44235,-6.602182 -1.20096,-10.393164 -0.25218,-1.159621 -1.51619,-4.148585 -1.45314,-4.996079 0.69556,-0.356566 1.13791,-0.08888 1.7694,0.223242 0.0631,0 0.0631,0 0.12609,0 1.07487,0.535368 2.14871,1.560629 3.03341,2.453597 l 1.64331,1.649513 c 0.56947,0.402043 1.13791,1.070735 1.70635,1.517219 1.3901,1.204061 3.72898,3.657658 4.86689,4.549593 1.7694,1.293979 5.11803,4.951637 6.88847,6.691066 1.01079,1.0697 2.21175,1.962668 3.41271,2.854605 0.31523,0.267685 0.56844,0.401008 1.01079,0.668692 1.45314,0.847495 2.84324,1.650545 4.54959,2.097031 -0.12609,-0.490928 -0.56844,-0.71417 -0.94774,-0.981852 -0.5054,-0.356568 -0.63149,-0.668694 -1.01079,-1.026295 -0.56844,-0.534333 -1.3901,-1.471744 -1.58027,-2.408121 0.5054,0.223243 0.63252,0.490927 1.01183,0.758608 0.56844,0.445453 1.264,1.025261 1.95853,1.337387 l 1.07487,0.579811 c 0.37931,0.1788 0.69453,0.3576 1.13688,0.535368 1.20096,0.535366 2.52801,0.892964 3.79202,1.160654 2.14871,0.48989 9.85883,0.84646 11.24893,-1.29398 -1.57924,-0.267684 -4.36046,-0.08888 -6.19291,-0.08888 -1.264,0 -4.36046,-0.402042 -5.3082,-1.293977 1.26297,0 3.28559,0.490927 5.37125,0.490927 4.0442,0.04444 7.20473,-0.04444 11.31197,-0.535369 1.32705,-0.1788 4.42453,-0.356568 4.86688,-1.517221 -1.45417,0.08992 -1.95957,0.446484 -4.61367,0.490926 -1.64331,0 -2.33887,0 -3.98115,-0.177765 0.56844,-0.267684 1.51619,-0.402042 2.2748,-0.580845 1.51618,-0.356566 3.09645,-0.62425 4.29741,-1.605069 0.3793,-0.312126 1.264,-1.115179 1.20096,-1.739429 -1.13792,0.489892 -2.84427,0.980819 -4.04523,1.337387 -1.13688,0.312124 -3.85506,0.758608 -4.9289,0.312124 2.97036,-0.891934 6.76238,-1.694987 9.03717,-3.523298 0.25322,-0.1788 0.82166,-0.668694 0.94775,-0.847494 -0.31626,-0.08888 -2.14871,0.490926 -2.6541,0.624252 -1.01079,0.267684 -1.95957,0.402042 -2.84427,0.490927 -2.52801,0.223242 -3.98115,0.267684 -6.50917,0.08888 -3.9181,-0.223242 -7.77317,-1.02526 -11.56518,-2.185911 -1.01079,-0.312126 -2.14871,-0.534336 -3.09645,-1.02526 -0.25322,-0.08992 -0.31626,-0.134361 -0.69557,-0.267684 -0.12609,-0.08888 -0.12609,-0.08888 -0.25218,-0.134361 l -0.25321,-0.177766 c -0.25218,-0.134358 -0.44235,-0.1788 -0.69453,-0.267684 -1.13792,-0.57981 -2.27583,-1.293976 -3.41271,-1.918229 -0.12713,-0.04444 -0.37931,-0.223242 -0.5054,-0.312126 l -1.64331,-1.115177 c -1.26401,-0.803052 -3.72897,-2.810163 -4.04523,-3.033405 -1.01079,-0.624253 -2.02158,-1.739429 -2.84324,-2.49804 l -3.47576,-3.300058 c -1.32705,-1.205092 -3.47575,-1.740461 -5.30923,-1.740461 l -6.06682,0.625285 c -1.07383,0.08888 -2.46496,0.133326 -3.41271,-0.1788 -1.264,-0.490927 -2.78019,-0.980819 -4.17029,-1.115179 -0.3793,-0.08888 -1.13791,-0.133324 -1.58026,-0.267682 -0.75861,-0.223242 -0.56948,-0.08888 -1.32705,-0.177768 -1.26401,-0.223243 -2.14871,-0.08992 -3.41271,0.08888 -0.25322,0.04444 -0.37931,-0.04444 -0.56948,0 -0.18913,0.04444 -1.01079,0.223242 -1.39009,0.312126 l -4.42351,0.936376 c -1.51722,0.312127 -1.58026,0.402043 -2.52801,-0.490926 -1.13791,-1.069703 -0.3793,-4.237469 -0.63148,-6.021337 -0.82166,0.08888 -1.39113,1.026292 -2.08566,1.427302 -0.37931,-0.490926 -1.07487,-3.478858 -2.02262,-5.485971 -1.20096,-2.542479 -3.72897,-5.263761 -4.61367,-7.717358 l 0.31626,0.223242 c 0,0 0,0.04444 0.063,0.04444 l 0.56948,0.446484 c 0.31522,0.267684 0.63148,0.579811 1.01079,0.758611 0.5054,0.26665 0.69453,0.489892 1.07383,0.713134 0.94878,0.624253 2.84427,1.293979 3.91811,1.650545 3.85506,1.159621 8.02639,0.490926 11.50214,-1.427303 0.44235,-0.267684 0.63252,-0.402042 1.01183,-0.714168 0.44235,-0.356566 0.75757,-0.535366 1.01079,-0.980819 -0.18914,0.04444 -0.31626,0.08888 -0.5054,0.177768 -1.7694,0.625285 -3.47575,1.517219 -5.30924,1.873788 -0.63148,0.134358 -1.39009,0.535368 -1.83244,-0.08888 0.44235,-0.891934 3.34967,-1.606102 4.10828,-2.899047 -0.69557,0.08888 -1.64331,0.757576 -4.17133,1.069702 -0.82165,0.08992 -1.89549,0.08992 -2.78019,-0.177768 -0.44338,-0.08992 -1.01182,-0.1788 -1.51722,-0.446484 0.18914,-0.1788 0,-0.08888 0.25322,-0.223242 0.63148,-0.401008 0.50539,-0.177766 1.264,-0.847493 0.75758,-0.668692 1.51619,-1.605071 1.64228,-2.810163 l -0.82166,0.891934 c -0.31522,0.267685 -0.18913,0.134358 -0.50539,0.313158 -0.25218,0.177769 -0.12609,0.177769 -0.5054,0.356569 -0.50539,0.267684 -2.1487,0.490926 -2.97036,0.401008 0.44235,-1.783869 2.46497,-2.051553 2.90732,-3.613216 -0.94775,0.13436 -1.83245,0.580845 -2.84427,0.357602 0.12712,-0.223242 0.19017,-0.223242 0.3793,-0.402042 0.31626,-0.312126 0.25322,-0.177768 0.56948,-0.356568 0.31522,-0.1788 0.8847,-0.490927 1.13688,-0.758611 l -2.08566,0.3576 c -0.18914,0.04444 -0.44235,0.133326 -0.69453,0.177769 -0.5054,0.08992 -0.94775,0.134358 -1.45418,0.223242 -0.63149,0.08888 -1.01079,0.08888 -1.39009,-0.133326 0.63251,-0.714169 1.51721,-0.847493 1.83244,-1.784903 -0.69453,0.134358 -1.07384,0.891934 -2.84324,0.93741 -0.94774,0.04444 -2.1487,0.08888 -3.0334,-0.490926 0.3793,-1.026295 4.17029,-0.267684 4.9289,-1.873787 -1.83245,0.758611 -3.03341,0.669726 -4.9289,0.223242 -1.39113,-0.312126 -3.60288,-0.891937 -4.42454,-1.650545 -1.07384,-0.891937 -1.264,-0.936379 -2.96933,-1.070737 -0.44338,-0.04444 -1.32808,0.134358 -1.70635,0.267684 -1.77044,0.758611 -1.64331,2.409156 -1.77044,4.281909 -0.063,1.472779 0.94878,3.792018 2.59106,4.282942 0.19017,0.04444 0.63252,0.04444 0.94878,0.08888 0.5054,0.624253 0.63149,3.30109 0.63149,4.638477 0,0.1788 -0.0631,0.490926 -0.0631,0.535368 0,0.223243 0.0631,0.223243 0,0.446485 l -0.12609,1.20406 c -0.37931,1.382861 -1.45418,4.014227 -2.78123,4.594035 -0.94774,0.446484 -3.41271,0.267684 -4.29741,-0.04444 -0.56844,-0.177766 -1.95854,-0.489892 -2.21175,-1.115177 0.25321,-0.44545 0.44235,-0.356568 0.94774,-0.489892 1.64332,-0.402042 6.95152,-1.650545 7.20473,-2.900082 l -1.83244,0.579811 c -0.94775,0.313158 -2.08566,0.579808 -3.16053,0.3576 0.63252,-1.427303 2.52801,-2.097029 3.85506,-2.765724 0.19017,-0.08888 0.44235,-0.1788 0.69556,-0.356566 0.31626,-0.1788 0.5054,-0.267684 0.63149,-0.535368 -0.63149,0.133326 -1.32705,0.177766 -1.95854,0.356568 -0.31626,0.08888 -0.69556,0.1788 -0.94774,0.267682 -0.37931,0.133326 -0.37931,0.178803 -0.82166,0.312126 -4.86688,1.382861 0.31626,0.847495 -7.393862,1.204061 -0.695566,0.04444 -1.20096,0.04444 -1.95957,0.13436 -0.505397,0.04444 -1.453142,0.356566 -1.959571,0.267682 0,-0.62425 0.379304,-0.847492 0.695566,-1.159618 1.769401,-1.427303 1.580264,-1.427303 4.234365,-1.650545 1.706352,-0.134358 4.992982,-0.312127 5.561422,-2.141472 -1.32705,0.267685 -2.65411,1.115177 -4.10828,1.115177 -0.75758,0 -1.453142,-0.668692 -4.739761,-0.44545 -2.654102,0.133326 -2.085661,0.40101 -2.906284,0.713134 0.505396,-1.606103 2.400887,-2.810163 4.233333,-3.12229 -0.12609,-0.134358 -0.06304,-0.134358 -0.315225,-0.223242 -0.506431,-0.223242 -1.454176,-0.133323 -1.896525,0.08888 -1.20096,0.625285 -2.148708,1.517219 -3.096453,2.409156 -0.505394,0.535368 -1.327049,0.579808 -2.08566,0.847492 -0.568442,0.1788 -0.947746,0.356568 -1.453142,0.579811 -0.316259,0.134358 -0.253214,0.134358 -0.569473,0.356568 -0.315228,0.223242 -0.315228,0.312124 -0.631487,0.3576 0.379304,-1.026295 1.010791,-1.517221 1.895491,-2.007113 0.379307,-0.223242 0.632521,-0.267684 0.885735,-0.580843 -1.454174,-1.02526 -3.91914,1.070735 -4.740796,1.873788 -1.073835,1.026294 -2.591057,2.854605 -4.233333,2.854605 -0.758611,-0.980818 -0.127125,-1.516187 -0.569474,-2.408121 -1.199927,0.803053 -0.505396,1.694987 -2.591056,3.925342 -3.349667,3.74654 -1.136883,0.936377 -3.601847,5.218285 -0.316262,0.490926 -0.568441,1.070737 -0.695566,1.561663 0.695566,-0.402042 1.20096,-1.739429 2.27583,-1.561663 0,0.04444 0.06304,0.13436 0.06304,0.08888 l -0.06304,0.803053 c -0.31626,2.364713 -0.569474,5.040518 -0.569474,7.405232 0,0.802018 0,2.586921 -0.12609,3.612182 -0.253214,2.275829 -0.06304,3.792016 1.137915,5.442561 0.378272,0.535368 1.01079,0.535368 1.706356,0.668694 1.32705,0.267685 3.727937,0.356566 4.423503,-0.891937 0.568439,-0.98185 0.568439,-2.631363 1.264004,-3.969781 0.252183,-0.356569 0,-0.04444 0.252183,-0.356569 0.316259,-0.402042 1.200959,-0.937411 1.643308,-0.625284 0.821656,0.490926 0.505397,3.969784 0.442352,4.595069 0,0.980818 -1.073838,3.211174 -1.390097,4.281908 -0.316259,1.338421 -0.758611,3.345532 -0.758611,4.728395 0,1.516184 0.06305,3.389974 0.632521,4.594034 -0.379304,0.714169 -0.316259,0.803051 -1.07487,1.248503 l -2.970361,1.740461 c -2.528011,1.382862 -5.245158,2.497002 -7.962304,4.014222 -2.211753,1.24851 -4.992979,3.8809 -5.498372,4.10311 -1.580267,0.71417 -3.349668,1.29398 -4.739765,2.36471 -0.758608,0.57981 -0.758608,0.35657 -1.327049,1.15962 -0.253214,0.22324 -1.896526,0.22324 -3.033406,1.20406 -0.253217,0.22325 -0.126092,0.1788 -0.379306,0.35657 -0.632519,0.40204 -1.20096,1.24954 -1.643312,1.87379 -0.252179,0.31212 -0.8847,1.56166 -1.01079,1.96267 l 6.129859,-0.0889 0.632521,-0.57981 c 0.820621,-0.8475 0.441314,-2.2748 1.390094,-2.90008 0.568441,-0.35657 1.327052,-0.57981 2.08566,-0.75758 0.694531,-0.22324 1.264007,-0.49093 1.769401,-1.07074 1.264007,-1.65054 2.906284,-2.76572 4.739764,-3.79201 0.442349,-0.22221 0.442349,-0.26769 0.947746,-0.4899 0.631486,-0.22324 1.327049,-0.71416 1.958536,-0.84749 l 8.594825,-1.11518 c 1.580264,-0.1788 3.476789,-0.49092 5.119066,-0.53537 1.391131,-0.0444 3.475757,-0.44648 4.803841,-0.31212 0.126092,1.96267 0.568441,4.01422 0.631486,6.51226 0,1.20407 0,2.58693 0.06305,3.47886 0.126092,2.36471 0,4.63951 -0.25218,7.00319 -0.190169,1.78387 -0.75861,2.2748 -1.83348,3.30109 l -1.390097,1.65055 c -0.631484,0.80202 -1.264005,1.64951 -1.073835,2.94349 l 5.182113,-0.0889 c 0.12609,-0.53537 0.06305,-1.07073 0.315224,-1.47278 0.127125,-0.17776 0.379307,-0.35656 0.442352,-0.48989 l 0.379304,-0.66973 c 1.07487,-1.96267 -0.189135,-5.26272 0.758611,-8.07289 0.06305,-0.26768 0.12609,-0.49092 0.189134,-0.84749 0.19017,-0.49093 0.316262,-1.07074 0.443387,-1.60611 0.694531,-2.76572 1.073835,-5.26376 1.89549,-7.93956 0.12609,-0.53537 0.253215,-0.93638 0.442349,-1.51722 0.189138,-0.57981 0.379297,-0.93638 0.568437,-1.51619 0.19017,-0.62425 0.31626,-0.80305 0.94775,-0.98082 0.19016,-0.0455 1.70635,-0.13436 1.95957,-0.13436 4.48654,-0.17776 9.29038,-0.66869 13.65084,-1.51618 0.56844,-0.0899 1.01079,-0.22324 1.64331,-0.31213 2.14871,-0.40204 4.23437,-1.11518 6.38204,-1.694982 l 2.97036,-1.026294 c 2.14871,-0.936377 3.53984,-1.828311 6.32003,-1.115177 1.13792,0.267684 2.02262,0.847492 3.03341,1.427303 l 4.4235,3.12229 c 3.16053,1.82934 13.33459,2.81016 15.48329,4.63951 0.44235,0.35656 0.75861,0.57981 1.13792,0.89193 0.44235,0.40101 0.69556,0.40101 1.01079,1.02526 0.0641,0.1788 0.12712,0.3576 0.25321,0.62529 0.18914,0.35657 0.25322,0.31212 0.44235,0.66869 0.31626,0.44649 0.63252,0.75861 0.8847,1.15962 0.25322,0.44649 0.5054,0.66973 0.82166,1.15962 0.8847,1.51722 1.58026,2.72128 0.94774,4.54959 -0.3793,1.11518 -0.94774,1.56167 -0.94774,2.90008 0.063,1.07074 0,2.05156 0.063,3.47886"
       id="path337"
       style="stroke-width:0.264583" />
    <path
       fill-rule="evenodd"
       fill="#ffffff"
       fill-opacity="1"
       d="m 122.62793,72.449981 c 0.063,0.134358 0.12712,1.070737 0.12712,1.293979 -0.88573,0.668692 -1.32809,1.20406 -2.33888,1.471745 -0.56844,0.1788 -0.25321,-0.08889 -0.75861,0.04444 -0.75757,0.134358 -0.63148,0.937408 -1.20096,1.517218 0,0.04444 0,0.04444 -0.063,0.08888 -0.18914,0.178801 0,-0.04444 -0.12609,0.178801 -0.12609,0.08888 -0.18914,0.267684 -0.18914,0.445449 0,1.517222 1.7694,3.212209 3.09645,3.434416 2.14871,0.313161 3.91811,-0.757576 5.62447,-1.917194 1.32705,-0.847495 1.39009,-0.579811 1.39009,-2.185914 l -0.063,-0.535368 c 0,0 0,-0.04444 0,-0.04444 l -0.19017,-1.070734 c -0.0631,-0.133327 -0.0631,-0.08888 -0.12609,-0.178801 -1.01079,-2.184881 -1.83245,-0.713136 -2.33784,-2.542481 -0.19017,-0.489892 -0.63252,-1.471745 -1.32706,-1.115177 -0.50539,0.223242 -0.50539,1.026293 -1.51721,1.115177"
       id="path339"
       style="stroke-width:0.264583" />
    <path
       fill-rule="evenodd"
       fill="#ffffff"
       fill-opacity="1"
       d="m 117.88816,93.771677 c -0.69453,-0.668692 -0.8847,-0.312126 -1.32705,-1.739429 l -0.31626,-0.714169 c -0.8847,0.1788 -1.13688,0.669727 -1.7694,1.29398 -0.31626,0.312123 -0.50539,0.535365 -0.75861,0.847492 -0.37827,0.356568 -0.69453,0.356568 -0.63148,0.980818 0,0 4.61367,1.606106 4.8028,-0.668692"
       id="path341"
       style="stroke-width:0.264583" />
    <path
       fill-rule="evenodd"
       fill="#ffffff"
       fill-opacity="1"
       d="m 112.7691,66.56197 c -0.063,-0.222211 0,-0.222211 -0.063,-0.445453 -0.063,-0.267684 -0.063,-0.1788 -0.18914,-0.312126 l 1.07384,-0.891934 c 0.25322,-0.357601 0.19017,-1.517219 0.12609,-1.918229 l -0.37827,0.624252 c -0.31626,0.579808 -0.82166,0.891934 -1.39113,1.159619 l -2.21175,1.249534 c 0.56947,0.312126 0.82165,-0.267682 1.45417,0.356568 0.25218,0.267685 0.5054,0.535369 1.57924,0.177769"
       id="path343"
       style="stroke-width:0.264583" />
    <path
       fill-rule="evenodd"
       fill="#ffffff"
       fill-opacity="1"
       d="m 148.47544,98.90108 c -0.25218,-0.08888 -1.7694,-0.267684 -2.21175,-0.356568 -0.75861,-0.178801 -1.64331,-0.490927 -2.2748,-0.579808 -0.12609,0.891934 0.56845,1.115176 1.95854,1.427302 0.75861,0.133324 1.26401,0.1788 1.95957,0.04444 0.63149,-0.133326 0.44235,-0.04444 0.56844,-0.535368"
       id="path345"
       style="stroke-width:0.264583" />
    <path
       fill-rule="evenodd"
       fill="#ffffff"
       fill-opacity="1"
       d="m 106.4501,80.479466 c -0.3793,-1.115179 -1.83348,-1.115179 -1.83348,-1.115179 -0.56844,0.312126 -0.75861,1.026294 -0.63148,1.828313 0.63148,0.3576 0.63148,0.223242 1.264,0 0.5054,-0.177766 0.8847,-0.222208 1.20096,-0.713134"
       id="path347"
       style="stroke-width:0.264583" />
    <path
       fill-rule="evenodd"
       fill="#ffffff"
       fill-opacity="1"
       d="m 110.30516,73.74396 -0.50642,0.267684 c 0,1.783868 -1.07384,3.345532 -1.13689,3.613216 -0.12712,0.401008 -0.3793,1.739427 0,2.007111 0.25219,-0.356566 0.25219,-0.98185 0.31523,-1.561661 0.31626,-1.783871 0.8847,-0.40101 1.32808,-4.32635"
       id="path349"
       style="stroke-width:0.264583" />
    <path
       fill-rule="evenodd"
       fill="#ffffff"
       fill-opacity="1"
       d="m 94.442565,94.931295 -1.137914,-0.75861 c -0.758611,-0.356566 -0.821656,-0.846458 -1.959571,-0.489892 0.19017,0.803053 2.022615,1.962671 3.097485,1.248502"
       id="path351"
       style="stroke-width:0.264583" />
    <path
       fill-rule="evenodd"
       fill="#ffffff"
       fill-opacity="1"
       d="m 110.30516,73.74396 c 0.0631,0 0.0631,-0.04444 0.0631,-0.08888 l 0.44235,-0.357601 c 0.31523,-0.133326 0.63148,-0.04444 0.82165,-0.668694 0,0 0,-0.04444 0,-0.04444 l 0.44236,-0.936377 c -0.44236,-0.3576 -1.39113,-0.3576 -1.89653,-0.223242 0.3793,0.803053 0.5054,-0.08992 0.75861,1.025261 -0.31626,0.535368 -0.69557,0.223242 -0.63149,1.293979"
       id="path353"
       style="stroke-width:0.264583" />
    <path
       fill-rule="evenodd"
       fill="#ffffff"
       fill-opacity="1"
       d="m 104.99593,68.435757 c -0.8847,0.08888 -0.18914,0.758608 -1.01079,1.829345 -0.5054,0.62425 -1.3901,0.668692 -1.32706,1.560629 1.64332,0.08992 1.51619,-1.338422 1.8955,-2.31924 0.19017,-0.579808 0.44235,-0.579808 0.44235,-1.070734"
       id="path355"
       style="stroke-width:0.264583" />
    <path
       fill-rule="evenodd"
       fill="#ffffff"
       fill-opacity="1"
       d="m 134.88868,80.612789 c -0.25322,0.267684 -0.12713,0.267684 -0.37931,0.625287 -1.3901,1.560627 -0.69556,0.579808 -1.13791,2.408121 0.44235,-0.223242 0.25321,-0.356568 0.56844,-0.847494 0.31626,-0.44545 0.94878,-0.891935 1.20096,-1.427303 0.063,-0.133324 0.12712,-0.312127 0.12712,-0.401008 -0.0641,-0.267684 -0.31626,-0.313161 -0.3793,-0.357603"
       id="path357"
       style="stroke-width:0.264583" />
    <path
       fill-rule="evenodd"
       fill="#ffffff"
       fill-opacity="1"
       d="m 100.57242,89.177643 -0.31626,-0.357601 c -0.316254,-0.312126 -0.821651,0.1788 -1.010786,0.625285 0.379305,0.267684 0.25218,0.177765 1.010786,0.267684 0.0631,-0.134361 0,-0.08992 0.12609,-0.267684 0.12713,-0.223242 0.0641,-0.134361 0.19017,-0.267684"
       id="path359"
       style="stroke-width:0.264583" />
    <path
       fill-rule="evenodd"
       fill="#ffffff"
       fill-opacity="1"
       d="m 102.78418,68.792322 c 0.12609,-0.489891 0,-0.668692 -0.63149,-0.62425 l 0.063,0.62425 c 0.25217,0.134361 -0.25322,0.08992 0.31522,0.08992 0.19017,0 0.19017,-0.04444 0.25322,-0.08992"
       id="path361"
       style="stroke-width:0.264583" />
    <path
       fill-rule="evenodd"
       fill="#ffffff"
       fill-opacity="1"
       d="m 133.37146,83.601755 c 0,0.446485 -0.0631,0.936377 0.25321,1.115177 0.18914,-0.267685 0.12609,-0.04444 0.0631,-0.402043 z m 0,0"
       id="path363"
       style="stroke-width:0.264583" />
    <path
       fill-rule="nonzero"
       fill="#000003"
       fill-opacity="1"
       d="m 68.769714,142.14495 0.01654,-0.59221 c 0.09819,-0.0362 0.27182,-0.0796 0.521933,-0.13333 0.399976,-0.0858 0.642856,-0.16226 0.728639,-0.22944 0.08475,-0.0682 0.189135,-0.23358 0.314193,-0.49299 l 1.576131,-4.5713 1.845881,-5.37538 c 0.175699,0 0.341064,0 0.501261,0 h 0.3576 l 0.06925,0.15606 1.354958,3.55947 c 0.305924,0.75448 0.580842,1.48932 0.823722,2.20038 0.244946,0.71004 0.453718,1.29088 0.629417,1.74253 0.104386,0.27079 0.248047,0.6749 0.428916,1.2175 0.09405,0.29559 0.234612,0.66353 0.426847,1.10588 0.106453,0.24184 0.183968,0.38034 0.237712,0.42168 0.09612,0.0858 0.248047,0.14469 0.460952,0.17156 0.213942,0.0289 0.445453,0.0941 0.691431,0.19741 0.02585,0.1943 0.03927,0.33589 0.03927,0.43098 0,0.0413 -0.0021,0.10335 -0.0072,0.1912 -0.387575,0 -0.811321,-0.0207 -1.275374,-0.062 -0.464055,-0.0413 -0.879533,-0.062 -1.250571,-0.062 -0.410311,0 -0.708999,0.006 -0.8909,0.0176 l -1.328086,0.0713 -0.384472,0.0176 c 0,-0.20051 0.0083,-0.39481 0.02479,-0.57775 l 0.866097,-0.2067 c 0.261483,-0.0734 0.413412,-0.1323 0.453718,-0.17157 0.05374,-0.0589 0.07958,-0.12299 0.07958,-0.1974 0,-0.0765 -0.01241,-0.15296 -0.03927,-0.23255 l -0.312124,-0.84646 -0.613918,-1.69602 h -2.983796 c -0.109553,0.27492 -0.338997,0.94982 -0.685228,2.02365 -0.09922,0.30386 -0.149863,0.50953 -0.149863,0.61909 0,0.14986 0.03721,0.25631 0.109553,0.32142 0.119891,0.10956 0.349335,0.18604 0.688333,0.23048 0.04754,0.0114 0.23151,0.0434 0.553971,0.0971 0.0062,0.20361 0.0083,0.3452 0.0083,0.42478 0,0.061 -0.0052,0.12609 -0.01551,0.19431 -0.322461,0 -1.093472,-0.0445 -2.309937,-0.13333 l -0.320391,0.062 c -0.386541,0.0713 -0.751377,0.10645 -1.100709,0.10645 z m 3.672128,-4.85655 c 1.218531,0.0176 1.936832,0.0258 2.154907,0.0258 l 0.195337,-0.008 c -0.15503,-0.51366 -0.360701,-1.11208 -0.608748,-1.79317 -0.250114,-0.6842 -0.455787,-1.20613 -0.610815,-1.5627 z m 6.662126,-2.18591 0.178801,-0.008 1.616437,0.0444 0.482658,0.008 1.024229,-0.0444 h 0.177765 c 0.03204,0.10645 0.04857,0.18603 0.04857,0.24184 0,0.0682 -0.01035,0.17157 -0.03204,0.31006 -0.09922,0.0176 -0.216009,0.0351 -0.347266,0.0527 -0.258381,0.0382 -0.420645,0.0858 -0.482658,0.13849 -0.04754,0.0331 -0.07131,0.0713 -0.07131,0.11266 0,0.0971 0.03928,0.21807 0.11679,0.36277 0.03204,0.0558 0.104386,0.24494 0.219106,0.56327 0.04754,0.13849 0.133327,0.34727 0.258382,0.62528 0.389641,0.89607 0.669726,1.59164 0.835091,2.08773 0.101288,0.29456 0.180869,0.51263 0.24288,0.65113 0.367937,-0.93121 0.764812,-2.11667 1.189593,-3.55638 0.111619,-0.37413 0.175699,-0.67799 0.191201,-0.91054 -0.305925,-0.0506 -0.594278,-0.0775 -0.860928,-0.0775 h -0.09405 l -0.125058,-0.0176 c -0.01035,-0.10025 -0.0155,-0.1974 -0.0155,-0.28836 0,-0.13642 0.02066,-0.23667 0.06408,-0.30385 l 0.271817,-0.0269 0.682127,0.006 h 0.384474 c 0.234611,0.0207 0.479557,0.0289 0.735873,0.0289 l 0.62735,-0.0351 c 0.05064,0 0.125058,0.003 0.218075,0.009 0.0052,0.10335 0.0083,0.1881 0.0083,0.25011 0,0.0651 -0.0031,0.1447 -0.0083,0.24495 -0.533299,0.13539 -0.901237,0.26562 -1.103807,0.38344 -0.03721,0.0827 -0.06098,0.13539 -0.07235,0.16536 l -0.02894,0.0796 c -0.210838,0.69247 -0.543634,1.61024 -1.000455,2.74816 l -0.850594,2.26446 c -0.109553,0.28939 -0.192235,0.48679 -0.242879,0.59634 -0.08992,0.19741 -0.165365,0.36897 -0.229444,0.51263 h -0.634585 c -0.202573,-0.3855 -0.413411,-0.85782 -0.62942,-1.41179 l -1.058333,-2.63654 c -0.258381,-0.70176 -0.555006,-1.4397 -0.885735,-2.21175 -0.04237,-0.10025 -0.07441,-0.15916 -0.101285,-0.18293 -0.418579,-0.12713 -0.661458,-0.22118 -0.722437,-0.29249 -0.01035,-0.0641 -0.01654,-0.14159 -0.01654,-0.22428 0,-0.10542 0.01344,-0.1912 0.04031,-0.25941 z m 7.80314,2.45669 c 0.136427,-0.48885 0.256315,-0.81648 0.360703,-0.97565 0.29042,-0.47542 0.602547,-0.84336 0.933276,-1.10587 0.330729,-0.26562 0.62942,-0.44235 0.89607,-0.52814 0.344164,-0.10955 0.621149,-0.16536 0.834056,-0.16536 0.490927,0 0.885735,0.0413 1.189593,0.12402 0.301789,0.0858 0.555003,0.20361 0.757576,0.35967 0.29042,0.22428 0.525032,0.45165 0.701765,0.6811 0.1788,0.23047 0.322461,0.50126 0.434084,0.81132 0.112654,0.31006 0.173633,0.68729 0.183967,1.12964 l -0.866098,-0.0155 c -0.239778,0 -0.76791,-0.0259 -1.581298,-0.0734 -0.301791,-0.0289 -0.509529,-0.0444 -0.624252,-0.0444 -0.03721,0 -0.320392,0.006 -0.845426,0.0176 h -0.671793 c -0.01344,0.0806 -0.01963,0.1509 -0.01963,0.20671 0,0.30696 0.03514,0.62839 0.10232,0.96738 0.06925,0.3359 0.170531,0.63459 0.305924,0.89091 0.136425,0.25941 0.303858,0.47749 0.504362,0.66352 0.200504,0.18604 0.408244,0.31833 0.621149,0.39791 l 0.455787,0.16536 c 0.399976,0 0.669727,-0.0145 0.806154,-0.0444 0.250113,-0.0589 0.471289,-0.13229 0.661458,-0.22117 0.189135,-0.0909 0.420645,-0.24495 0.693497,-0.45992 0.183967,0.14986 0.335896,0.28628 0.457853,0.40721 -0.457853,0.56017 -0.933278,0.96428 -1.424201,1.21439 -0.492996,0.25115 -1.041797,0.37724 -1.650548,0.37724 -0.41031,0 -0.746207,-0.0413 -1.007689,-0.12092 -0.347266,-0.10232 -0.66456,-0.26148 -0.944645,-0.47439 -0.279053,-0.21497 -0.521933,-0.47749 -0.724503,-0.79582 -0.203605,-0.31626 -0.355534,-0.64285 -0.453721,-0.97668 -0.131257,-0.43925 -0.195336,-0.79065 -0.195336,-1.05523 0,-0.50127 0.03824,-0.95292 0.109553,-1.35703 z m 4.547526,-0.35966 c -0.0052,-0.32453 -0.06201,-0.63356 -0.170532,-0.92915 -0.112655,-0.29455 -0.280085,-0.52503 -0.50953,-0.68936 -0.229444,-0.16536 -0.461986,-0.24805 -0.696597,-0.24805 -0.349332,0 -0.663525,0.17054 -0.946714,0.50953 -0.282151,0.34003 -0.439248,0.80306 -0.477488,1.3839 l 1.784903,0.0176 c 0.114721,0 0.274918,-0.009 0.484725,-0.0269 0.149862,-0.0145 0.256315,-0.0207 0.320394,-0.0207 0.04547,0 0.11679,0 0.210839,0.003 z m 2.597258,4.51238 c 0.138494,-0.0713 0.264583,-0.11885 0.381373,-0.14159 0.29042,-0.0506 0.461986,-0.0951 0.509529,-0.13023 0.07751,-0.0496 0.130226,-0.11472 0.157097,-0.1881 0.03204,-0.11885 0.04857,-0.37207 0.04857,-0.76377 v -0.75551 l 0.0072,-0.61599 -0.02379,-0.91157 v -0.5488 c 0,-0.36277 -0.02687,-0.66043 -0.07752,-0.89297 -0.02066,-0.0858 -0.08785,-0.17467 -0.197403,-0.25942 -0.146761,-0.11782 -0.396875,-0.23047 -0.749308,-0.339 l -0.0155,-0.40721 c 0.06925,-0.0238 0.130225,-0.0382 0.18397,-0.0475 0.05581,-0.008 0.26665,-0.0651 0.634584,-0.17053 0.288357,-0.11576 0.47439,-0.19534 0.557073,-0.24185 0.02687,-0.0176 0.06925,-0.0444 0.128159,-0.0775 0.06201,-0.0589 0.133323,-0.11782 0.210838,-0.17363 0.157096,-0.12093 0.346234,-0.3328 0.568441,-0.63356 l 0.420646,-0.0176 -0.01551,0.98495 c -0.01035,0.10025 -0.01654,0.17673 -0.01654,0.23564 0,0.0465 0.0062,0.17984 0.01654,0.40101 0.428913,-0.41858 0.821656,-0.71106 1.176155,-0.87333 0.460954,-0.21497 0.901237,-0.32453 1.314648,-0.32453 0.487826,0 0.917776,0.13333 1.285716,0.40101 0.36793,0.26872 0.61081,0.57878 0.72554,0.92914 0.11472,0.3545 0.17053,1.06144 0.17053,2.12701 l -0.032,2.81843 c 0,0.13332 0.0207,0.24185 0.0641,0.32763 0.0506,0.0475 0.1943,0.091 0.42891,0.13229 l 0.38137,0.0775 c 0.0455,0.0765 0.0692,0.16744 0.0692,0.27699 0,0.0703 -0.002,0.16743 -0.007,0.28835 l -1.52859,-0.12299 -0.45062,0.0176 h -0.3607 l -1.029401,0.0703 H 98.72465 c -0.0052,-0.0734 -0.0083,-0.12919 -0.0083,-0.16743 0,-0.10025 0.0052,-0.20981 0.01654,-0.32763 0.07131,-0.0176 0.253215,-0.0475 0.543635,-0.0858 0.07752,-0.0114 0.163298,-0.032 0.256315,-0.062 0.103354,-0.0465 0.162266,-0.091 0.178802,-0.1385 0.03927,-0.0971 0.06098,-0.28318 0.06098,-0.56017 0,-0.48369 -0.0031,-0.85266 -0.0083,-1.11208 l 0.0083,-0.99942 c 0,-1.21543 -0.06924,-1.9699 -0.210838,-2.27066 -0.197403,-0.43098 -0.490927,-0.64596 -0.884701,-0.64596 -0.291454,0 -0.590145,0.0827 -0.902271,0.24495 -0.309026,0.16536 -0.631487,0.41238 -0.962216,0.74621 l -0.01654,0.14676 0.01654,0.5426 -0.01654,0.57878 0.03204,1.37976 -0.01551,0.21497 c 0,0.93845 0.03411,1.46555 0.104389,1.58647 0.06615,0.12092 0.329695,0.25425 0.783413,0.39894 0.01654,0.0971 0.02379,0.17053 0.02379,0.21807 0,0.0672 -0.0186,0.17674 -0.05581,0.32143 -0.162264,0.006 -0.298691,0.008 -0.408245,0.008 -0.111619,0 -0.285252,-0.0176 -0.519864,-0.0527 l -0.842327,-0.0176 c -0.42168,0 -1.029393,0.0238 -1.822111,0.0703 -0.02066,-0.0589 -0.03204,-0.12092 -0.03204,-0.185 0,-0.0475 0.0031,-0.1416 0.0083,-0.28319 z m 8.972068,-6.12262 c 0.60978,-0.28629 1.05316,-0.56947 1.32498,-0.84336 0.27182,-0.27389 0.56224,-0.72244 0.87436,-1.34152 h 0.43202 c 0.0486,0.14986 0.0724,0.30696 0.0724,0.47129 0,0.30076 -0.003,0.53123 -0.008,0.6997 l -0.0238,0.50643 c 0,0.03 0.003,0.0951 0.008,0.19843 l 0.1788,0.008 c 0.0269,0 0.27182,-0.008 0.73277,-0.0289 0.0372,0 0.23255,-0.006 0.58395,-0.0155 0.032,0.15399 0.0486,0.28938 0.0486,0.40721 0,0.13229 -0.0186,0.28629 -0.0537,0.45992 -0.1726,0.0351 -0.30386,0.0537 -0.39171,0.0537 -0.0403,0 -0.12506,-0.0124 -0.25115,-0.0362 h -0.40514 l -0.13849,-0.008 -0.3762,0.0258 -0.0155,3.30006 c -0.005,0.63768 0.005,1.03559 0.0341,1.19476 0.03,0.15916 0.091,0.30902 0.18397,0.45372 0.11989,0.062 0.25321,0.0951 0.3979,0.0951 0.1416,0 0.24495,-0.0155 0.3142,-0.0444 0.0672,-0.0269 0.1819,-0.11266 0.3421,-0.24805 0.031,-0.0289 0.0827,-0.0703 0.14882,-0.12092 0.12506,0.10955 0.22634,0.21807 0.30386,0.32763 l 0.032,0.10335 c -0.18087,0.31833 -0.43718,0.56844 -0.76481,0.75138 -0.32866,0.18293 -0.68006,0.27491 -1.0511,0.27491 -0.48266,0 -0.8723,-0.17156 -1.17099,-0.51056 -0.30075,-0.339 -0.45062,-0.86403 -0.45062,-1.57716 l 0.032,-1.52239 v -2.45877 l -0.24288,-0.0186 -0.5674,0.0186 -0.10129,-0.0444 c -0.032,-0.0506 -0.0486,-0.10025 -0.0486,-0.14469 0,-0.0351 0.005,-0.16536 0.0165,-0.38654 z m 4.91959,-0.43305 c 0.0589,-0.0238 0.10439,-0.0413 0.14159,-0.0537 h 2.34198 l 0.1726,0.0176 0.0165,0.57877 -0.032,0.84646 0.0155,0.43925 -0.0155,1.30018 v 0.8909 c 0,0.58085 0.0289,1.03767 0.0847,1.3715 0.0775,0.25011 0.20567,0.44235 0.3793,0.57154 0.17363,0.13022 0.38654,0.1943 0.63769,0.1943 0.23151,0 0.42374,-0.0258 0.56741,-0.0765 0.14676,-0.0527 0.31522,-0.14986 0.50436,-0.29456 0.18913,-0.14469 0.30902,-0.24804 0.36276,-0.31006 0.15193,-0.185 0.25632,-0.35656 0.31213,-0.50953 l 0.0506,-2.14457 c 0.008,-0.22427 0.0134,-0.40617 0.0134,-0.54777 0,-0.15089 -0.003,-0.34003 -0.0114,-0.56637 -0.007,-0.22428 -0.0124,-0.3545 -0.0124,-0.38034 l 0.007,-0.31833 -0.0155,-0.19223 c -0.12505,-0.0858 -0.29868,-0.1385 -0.52606,-0.16227 l -0.52503,-0.0351 c -0.032,-0.0176 -0.0589,-0.0383 -0.0848,-0.062 -0.0217,-0.11782 -0.032,-0.2067 -0.032,-0.26562 0,-0.0703 0.007,-0.17053 0.0238,-0.30075 0.1726,-0.0289 0.32247,-0.0444 0.44752,-0.0444 l 1.21336,0.0176 c 0.3235,0 0.72347,-0.005 1.19476,-0.0176 l 0.0165,0.64595 -0.0165,0.82889 v 1.0356 l -0.007,1.48001 -0.0165,0.66353 0.008,0.44855 c -0.0217,0.30075 -0.032,0.46819 -0.032,0.50953 0,0.14159 0.0238,0.25114 0.0692,0.31832 0.0475,0.0682 0.093,0.10336 0.13332,0.10336 l 0.72037,-0.0259 0.093,0.0176 c 0.0165,0.20361 0.0238,0.31833 0.0238,0.34727 0,0.0413 -0.007,0.10335 -0.0238,0.19224 -0.27699,0.0114 -0.47439,0.032 -0.59428,0.0589 -0.56018,0.13849 -1.17099,0.3421 -1.83555,0.61288 l -0.31419,-0.0176 -0.008,-1.39733 c -0.061,0.0558 -0.15193,0.1447 -0.27182,0.26562 -0.45888,0.45062 -0.85059,0.75448 -1.17615,0.91054 -0.32763,0.15916 -0.67179,0.23874 -1.02939,0.23874 -0.42685,0 -0.79479,-0.0971 -1.10692,-0.29145 -0.31212,-0.19741 -0.54156,-0.43925 -0.68522,-0.72554 -0.10956,-0.22427 -0.1819,-0.5457 -0.21911,-0.96738 -0.0104,-0.10852 -0.0155,-0.67179 -0.0155,-1.68982 l 0.008,-0.27697 c 0.0258,-0.56328 0.0393,-0.97876 0.0393,-1.25058 0,-0.45992 -0.007,-0.76687 -0.0238,-0.92294 -0.005,-0.0734 -0.032,-0.15916 -0.0796,-0.25631 -0.0724,-0.0351 -0.15813,-0.062 -0.25631,-0.0796 -0.33383,-0.0651 -0.54157,-0.12403 -0.62425,-0.18294 -0.0269,-0.0176 -0.0403,-0.0558 -0.0403,-0.11265 0,-0.0351 0.003,-0.0816 0.0114,-0.14159 0.005,-0.0558 0.0134,-0.15297 0.0207,-0.28526 z m 8.76432,6.54947 c 0.0692,-0.062 0.1571,-0.10955 0.26665,-0.13849 0.26665,-0.062 0.51987,-0.17674 0.75965,-0.3452 0.0455,-0.13849 0.0692,-0.60461 0.0692,-1.40043 0,-1.46038 -0.0289,-2.44843 -0.0858,-2.96106 -0.0104,-0.091 -0.0527,-0.17157 -0.12506,-0.24185 -0.13022,-0.0734 -0.30695,-0.14159 -0.5302,-0.1974 -0.10438,-0.03 -0.16536,-0.092 -0.18706,-0.18914 l -0.0155,-0.31522 c 0.38654,-0.0589 0.73277,-0.20361 1.048,-0.43615 0.31212,-0.23358 0.54673,-0.47232 0.70073,-0.71417 0.0858,-0.13022 0.15813,-0.23254 0.21911,-0.30076 l 0.5519,-0.0176 c 0.0165,0.13229 0.0238,0.24184 0.0238,0.32762 0,0.0641 0,0.1416 0,0.23565 0,0.2005 0,0.36897 0,0.50126 0,0.062 0,0.30076 0,0.71624 0.21394,-0.40101 0.36793,-0.6687 0.46715,-0.80719 0.0455,-0.062 0.18397,-0.2036 0.41341,-0.42271 0.1757,-0.14366 0.37311,-0.21498 0.59738,-0.21498 0.27492,0 0.5116,0.10336 0.71417,0.31316 0.20257,0.20567 0.30489,0.44752 0.30489,0.71934 0,0.27078 -0.0775,0.51263 -0.22944,0.7307 -0.15503,0.21601 -0.3576,0.32453 -0.61082,0.32453 -0.22427,0 -0.45888,-0.10542 -0.70176,-0.31833 -0.14366,-0.12919 -0.26149,-0.1943 -0.34934,-0.1943 l -0.0558,0.008 c -0.10955,0.0413 -0.20773,0.15089 -0.29868,0.32762 -0.14677,0.28629 -0.21911,0.58705 -0.21911,0.89711 l 0.0165,0.23254 c 0.0207,0.42478 0.0372,1.4242 0.0476,2.9931 0.0165,0.14159 0.0641,0.28629 0.14986,0.43098 0.093,0.0796 0.18913,0.13849 0.28525,0.17053 0.0961,0.0351 0.26355,0.0651 0.50333,0.0889 0.24081,0.0238 0.38757,0.0589 0.44028,0.10852 0.0506,0.0506 0.0775,0.13022 0.0775,0.23874 0,0.0651 -0.0155,0.1478 -0.0475,0.25425 h -0.73382 l -1.49345,-0.0713 c -0.37621,0 -0.71727,0.0124 -1.02629,0.0382 h -0.13333 c -0.0351,0 -0.30696,0.0124 -0.81339,0.0331 -0.0165,-0.092 -0.0248,-0.15916 -0.0248,-0.20671 0,-0.0475 0.008,-0.11162 0.0248,-0.1974 z m 12.43749,-1.19476 0.1788,0.13023 c 0.0486,0.0413 0.0754,0.091 0.0858,0.14779 l 0.008,0.0434 c -0.12609,0.51366 -0.28836,0.86403 -0.49093,1.05937 -0.20257,0.1912 -0.45579,0.28835 -0.75758,0.28835 -0.30696,0 -0.5705,-0.0941 -0.79168,-0.28009 -0.21911,-0.1881 -0.42168,-0.51883 -0.60358,-0.99011 -0.22324,0.43924 -0.54054,0.76894 -0.94878,0.99011 -0.40824,0.22118 -0.90744,0.33383 -1.49655,0.33383 -0.54363,0 -0.94361,-0.12402 -1.19993,-0.37517 -0.25631,-0.25011 -0.38447,-0.58084 -0.38447,-0.99012 0,-0.18913 0.0382,-0.38033 0.11472,-0.57877 0.0755,-0.19431 0.19741,-0.38861 0.36897,-0.58085 0.16743,-0.1943 0.44235,-0.40721 0.81856,-0.63665 0.0558,-0.032 0.25528,-0.13229 0.59428,-0.29249 l 1.95233,-0.86403 c 0.0165,-0.21807 0.0238,-0.43925 0.0238,-0.66352 0,-0.77825 -0.0847,-1.30845 -0.25838,-1.58957 -0.10439,-0.17363 -0.28835,-0.25942 -0.54984,-0.25942 -0.26148,0 -0.50126,0.0568 -0.71933,0.16537 -0.21911,0.10955 -0.37931,0.24805 -0.48059,0.42168 -0.0724,0.12712 -0.13333,0.36587 -0.18604,0.71727 -0.0382,0.25321 -0.0723,0.39791 -0.10129,0.43925 -0.0806,0.10852 -0.2222,0.20877 -0.42684,0.29765 -0.20877,0.0879 -0.34727,0.15296 -0.42168,0.1943 -0.28319,0.1509 -0.50643,0.22428 -0.6749,0.22428 -0.0661,-0.0682 -0.10128,-0.16846 -0.10128,-0.29145 0,-0.32763 0.061,-0.61082 0.18707,-0.84646 0.18913,-0.33383 0.47129,-0.65526 0.85059,-0.97049 0.37621,-0.31315 0.73071,-0.53123 1.05833,-0.65732 0.44855,-0.16227 0.99736,-0.24185 1.64332,-0.24185 0.41547,0 0.77617,0.0848 1.07486,0.25322 0.30076,0.17156 0.50953,0.42168 0.62632,0.75551 0.11783,0.33279 0.1757,0.93431 0.1757,1.80144 l -0.0155,1.4242 0.0155,1.04386 v 0.26872 c 0,0.23875 0.03,0.40411 0.0889,0.49506 0.0579,0.0889 0.13332,0.13229 0.22634,0.13229 0.0558,0 0.10335,-0.0176 0.14366,-0.0527 l 0.23461,-0.40411 z m -2.56005,-1.99884 c -0.29869,0.10852 -0.63459,0.29145 -1.01079,0.5488 -0.37517,0.25632 -0.63666,0.51263 -0.78342,0.77205 -0.10438,0.18913 -0.15813,0.42168 -0.15813,0.69556 0,0.24805 0.0703,0.45475 0.20567,0.61392 0.13643,0.16226 0.29353,0.24184 0.47233,0.24184 0.29352,0 0.54363,-0.092 0.7462,-0.27698 0.28009,-0.24495 0.44339,-0.44235 0.48886,-0.59015 0.0476,-0.14779 0.0713,-0.56327 0.0713,-1.24746 0,-0.25012 -0.0104,-0.50437 -0.032,-0.75758 z m 7.31324,-7.54993 c 0.29559,0.0176 0.55398,0.0444 0.77309,0.0796 0.41031,0.0651 0.8878,0.0972 1.42936,0.0972 0.18914,0 0.66973,-0.0176 1.44591,-0.0496 1.16272,-0.0507 2.21072,-0.0734 3.14916,-0.0734 l 1.41387,-0.0186 c 0.31936,0 0.78652,0.0445 1.40767,0.13023 0.093,0.11472 0.14159,0.27182 0.14159,0.46612 v 1.77767 l 0.0155,0.3545 c 0,0.0351 -0.002,0.0879 -0.007,0.15606 l -0.32039,0.0176 c -0.0403,0 -0.12816,-0.006 -0.26459,-0.0176 -0.0475,-0.11472 -0.11162,-0.28629 -0.1912,-0.51263 l -0.31729,-0.61702 c -0.12093,-0.26251 -0.29146,-0.52709 -0.50746,-0.79891 -0.13023,-0.0413 -0.29869,-0.0651 -0.50127,-0.0703 -0.0527,-0.006 -0.21084,-0.0217 -0.47749,-0.0413 -0.48472,-0.0444 -1.00769,-0.0651 -1.56786,-0.0651 -0.63459,0 -1.20509,0.0114 -1.70635,0.0351 0.002,0.14469 0.005,0.70796 0.005,1.69291 l -0.005,1.44488 v 1.0821 c 0.13022,0.0176 0.24184,0.0269 0.33589,0.0269 0.92811,0 1.58957,-0.0207 1.98438,-0.0589 0.39481,-0.0413 0.63665,-0.0971 0.7307,-0.16846 0.093,-0.0734 0.1788,-0.19741 0.25012,-0.37414 0.0455,-0.12712 0.13642,-0.5488 0.27181,-1.26504 l 0.10129,-0.009 h 0.45889 c 0.0217,0.51366 0.032,0.90227 0.032,1.16789 0,0.60461 -0.002,0.99425 -0.008,1.16478 -0.005,0.17364 -0.007,0.31006 -0.007,0.40721 0,0.15607 0.007,0.40411 0.0238,0.74621 0.0155,0.3421 0.0238,0.59841 0.0238,0.76378 v 0.1912 h -0.56018 c -0.0207,-0.0909 -0.0579,-0.28008 -0.11678,-0.56637 -0.10439,-0.5333 -0.19741,-0.86713 -0.28009,-0.99943 -0.0641,-0.10335 -0.16847,-0.17983 -0.31213,-0.23254 -0.10438,-0.0382 -0.49092,-0.0589 -1.15445,-0.0589 -0.78755,0 -1.37666,0.0227 -1.77353,0.0703 0,0.1509 0,0.24805 0,0.29249 0,0.68626 0,1.25574 0,1.71049 v 1.86035 c 0,0.22117 0.0713,0.36897 0.21291,0.45165 0.2129,0.12093 0.86919,0.17984 1.96783,0.17984 0.72864,0 1.34462,-0.0589 1.85105,-0.17984 0.35244,-0.0889 0.66146,-0.28112 0.92811,-0.57877 0.3545,-0.38654 0.65112,-0.92605 0.88574,-1.62161 0.16226,-0.0176 0.29352,-0.0269 0.39687,-0.0269 0.0589,0 0.14469,0.003 0.25942,0.009 -0.0165,0.14469 -0.03,0.26562 -0.0403,0.36277 l -0.0455,0.25941 -0.28835,1.63091 -0.13849,0.98496 c -0.339,0.0176 -0.60462,0.0258 -0.80512,0.0258 -0.29042,0 -1.0697,-0.0258 -2.33578,-0.0816 -0.8909,-0.0393 -1.9637,-0.0589 -3.21634,-0.0589 -0.62735,0 -1.39526,0.0289 -2.30684,0.0879 h -0.32866 l -0.94361,0.0351 v -0.60151 c 0.0982,-0.0289 0.29559,-0.0589 0.59118,-0.0941 0.5395,-0.0713 0.91261,-0.16227 1.12035,-0.27699 0.0537,-0.16536 0.0806,-0.37724 0.0806,-0.62838 0,-0.10026 -0.003,-0.26562 -0.008,-0.50127 l 0.008,-0.26871 -0.0217,-3.25252 0.008,-0.97565 -0.0351,-1.38079 0.008,-0.97566 -0.0723,-1.07073 c 0,-0.03 -0.005,-0.0858 -0.0155,-0.17363 -0.0506,-0.062 -0.12815,-0.10336 -0.23254,-0.12093 -0.0579,-0.009 -0.13539,-0.0269 -0.23461,-0.0506 -0.29559,-0.0672 -0.58084,-0.10852 -0.85576,-0.12092 -0.0982,-0.006 -0.21084,-0.0176 -0.34107,-0.0351 z m 17.70745,8.93589 c 0.0827,0.0527 0.1447,0.0858 0.18707,0.10335 0.11989,0.0558 0.21601,0.12919 0.28835,0.21498 -0.13849,0.57464 -0.48059,1.07383 -1.02215,1.49241 -0.54054,0.42168 -1.2268,0.63045 -2.05259,0.63045 -0.5209,0 -1.03767,-0.12092 -1.5472,-0.36276 -0.50952,-0.24185 -0.91467,-0.56018 -1.21853,-0.95498 -0.23254,-0.30696 -0.40824,-0.6811 -0.52606,-1.12345 -0.11679,-0.44235 -0.1757,-0.81959 -0.1757,-1.12965 0,-0.37414 0.0723,-0.79581 0.21911,-1.27124 0.14572,-0.47439 0.3886,-0.92294 0.73277,-1.34152 0.34416,-0.41858 0.77618,-0.75241 1.30121,-0.99942 0.52296,-0.24805 1.11208,-0.37207 1.76837,-0.37207 0.89917,0 1.52549,0.15606 1.87999,0.46612 0.35553,0.31213 0.53123,0.62529 0.53123,0.93431 0,0.30696 -0.0724,0.54881 -0.21394,0.72347 -0.14366,0.17673 -0.34106,0.26459 -0.58911,0.26459 -0.21291,0 -0.41031,-0.0765 -0.58911,-0.23255 -0.1788,-0.15606 -0.32763,-0.41858 -0.44855,-0.78445 -0.093,-0.26561 -0.21291,-0.45992 -0.35967,-0.58084 -0.14366,-0.11472 -0.3173,-0.17157 -0.51987,-0.17157 -0.49092,0 -0.92501,0.23048 -1.31258,0.6935 -0.38344,0.46302 -0.57567,1.09141 -0.57567,1.89033 0,0.95808 0.23461,1.71875 0.70693,2.28513 0.46922,0.56327 1.00252,0.84646 1.603,0.84646 0.29559,0 0.54674,-0.0382 0.75448,-0.11162 0.13022,-0.0506 0.30696,-0.16227 0.5302,-0.33693 0.0568,-0.0434 0.16536,-0.16744 0.32349,-0.36794 0.15917,-0.2005 0.26665,-0.3359 0.32453,-0.40411 z m 1.17926,-4.74183 c 0.0589,-0.0238 0.10438,-0.0413 0.14159,-0.0537 h 2.34094 l 0.17364,0.0176 0.0155,0.57877 -0.032,0.84646 0.0165,0.43925 -0.0165,1.30018 v 0.8909 c 0,0.58085 0.03,1.03767 0.0858,1.3715 0.0775,0.25011 0.20567,0.44235 0.3793,0.57154 0.1726,0.13022 0.38654,0.1943 0.63665,0.1943 0.23255,0 0.42375,-0.0258 0.56844,-0.0765 0.14677,-0.0527 0.3142,-0.14986 0.50437,-0.29456 0.18913,-0.14469 0.30902,-0.24804 0.36173,-0.31006 0.15296,-0.185 0.25632,-0.35656 0.31213,-0.50953 l 0.0506,-2.14457 c 0.008,-0.22427 0.0134,-0.40617 0.0134,-0.54777 0,-0.15089 -0.002,-0.34003 -0.0103,-0.56637 -0.008,-0.22428 -0.0135,-0.3545 -0.0135,-0.38034 l 0.008,-0.31833 -0.0165,-0.19223 c -0.12505,-0.0858 -0.29869,-0.1385 -0.52503,-0.16227 l -0.52503,-0.0351 c -0.032,-0.0176 -0.0589,-0.0383 -0.0858,-0.062 -0.0217,-0.11782 -0.032,-0.2067 -0.032,-0.26562 0,-0.0703 0.008,-0.17053 0.0238,-0.30075 0.17364,-0.0289 0.3235,-0.0444 0.44855,-0.0444 l 1.21337,0.0176 c 0.32246,0 0.72243,-0.005 1.19476,-0.0176 l 0.0155,0.64595 -0.0155,0.82889 v 1.0356 l -0.008,1.48001 -0.0155,0.66353 0.007,0.44855 c -0.0207,0.30075 -0.032,0.46819 -0.032,0.50953 0,0.14159 0.0248,0.25114 0.0703,0.31832 0.0475,0.0682 0.093,0.10336 0.13333,0.10336 l 0.71933,-0.0259 0.094,0.0176 c 0.0155,0.20361 0.0238,0.31833 0.0238,0.34727 0,0.0413 -0.008,0.10335 -0.0238,0.19224 -0.27802,0.0114 -0.47542,0.032 -0.59531,0.0589 -0.56017,0.13849 -1.17099,0.3421 -1.83451,0.61288 l -0.31523,-0.0176 -0.007,-1.39733 c -0.062,0.0558 -0.15193,0.1447 -0.27285,0.26562 -0.45786,0.45062 -0.8506,0.75448 -1.17513,0.91054 -0.32866,0.15916 -0.67282,0.23874 -1.03042,0.23874 -0.42582,0 -0.79479,-0.0971 -1.10588,-0.29145 -0.31213,-0.19741 -0.54157,-0.43925 -0.68626,-0.72554 -0.10853,-0.22427 -0.18087,-0.5457 -0.21808,-0.96738 -0.0103,-0.10852 -0.0165,-0.67179 -0.0165,-1.68982 l 0.008,-0.27699 c 0.0269,-0.56327 0.0403,-0.97875 0.0403,-1.25057 0,-0.45992 -0.008,-0.76687 -0.0238,-0.92294 -0.006,-0.0734 -0.032,-0.15916 -0.0806,-0.25631 -0.0713,-0.0351 -0.1571,-0.062 -0.25528,-0.0796 -0.33383,-0.0651 -0.54157,-0.12403 -0.62425,-0.18294 -0.0269,-0.0176 -0.0403,-0.0558 -0.0403,-0.11265 0,-0.0351 0.003,-0.0816 0.0103,-0.1416 0.005,-0.0558 0.0134,-0.15296 0.0217,-0.28525 z m 9.13639,2.40295 c 0.13643,-0.48885 0.25632,-0.81648 0.3607,-0.97565 0.29042,-0.47542 0.60255,-0.84336 0.93328,-1.10587 0.33073,-0.26562 0.62942,-0.44235 0.89607,-0.52814 0.34416,-0.10955 0.62115,-0.16536 0.83509,-0.16536 0.48989,0 0.8847,0.0413 1.18856,0.12402 0.30179,0.0858 0.555,0.20361 0.75757,0.35967 0.29042,0.22428 0.52607,0.45165 0.70177,0.6811 0.1788,0.23047 0.32246,0.50126 0.43408,0.81132 0.11266,0.31006 0.17363,0.68729 0.18397,1.12964 l -0.8661,-0.0155 c -0.23978,0 -0.76791,-0.0259 -1.5813,-0.0734 -0.30179,-0.0289 -0.50953,-0.0444 -0.62425,-0.0444 -0.0372,0 -0.32039,0.006 -0.84542,0.0176 h -0.6718 c -0.0134,0.0806 -0.0196,0.1509 -0.0196,0.20671 0,0.30696 0.0351,0.62839 0.10232,0.96738 0.0693,0.3359 0.17053,0.63459 0.30592,0.89091 0.13643,0.25941 0.30489,0.47749 0.50437,0.66352 0.2005,0.18604 0.40824,0.31833 0.62115,0.39791 l 0.45578,0.16536 c 0.40101,0 0.66973,-0.0145 0.80616,-0.0444 0.25011,-0.0589 0.47129,-0.13229 0.66145,-0.22117 0.18914,-0.0909 0.42065,-0.24495 0.6935,-0.45992 0.18397,0.14986 0.3359,0.28628 0.45785,0.40721 -0.45785,0.56017 -0.93327,0.96428 -1.42317,1.21439 -0.49402,0.25115 -1.04282,0.37724 -1.65157,0.37724 -0.41032,0 -0.74621,-0.0413 -1.00769,-0.12092 -0.34727,-0.10232 -0.66456,-0.26148 -0.94465,-0.47439 -0.27905,-0.21497 -0.52193,-0.47749 -0.7245,-0.79582 -0.20361,-0.31626 -0.35554,-0.64285 -0.45372,-0.97668 -0.13126,-0.43925 -0.19431,-0.79065 -0.19431,-1.05523 0,-0.50126 0.0372,-0.95292 0.10852,-1.35703 z m 4.54753,-0.35966 c -0.005,-0.32453 -0.061,-0.63356 -0.17054,-0.92915 -0.11265,-0.29455 -0.28008,-0.52503 -0.50953,-0.68936 -0.22944,-0.16536 -0.46095,-0.24805 -0.69659,-0.24805 -0.34934,0 -0.66353,0.17054 -0.94671,0.50953 -0.28216,0.34003 -0.43926,0.80306 -0.4775,1.3839 l 1.78491,0.0176 c 0.11472,0 0.27492,-0.009 0.48472,-0.0269 0.14986,-0.0145 0.25632,-0.0207 0.3204,-0.0207 0.0455,0 0.11782,0 0.21084,0.003 z m 2.98896,2.52181 c 0.15503,-0.03 0.26975,-0.0413 0.3421,-0.0413 0.0372,0 0.093,0 0.16536,0.005 l 0.0693,0.0858 c 0.28009,0.5457 0.46405,0.87643 0.555,0.99115 0.18087,0.23565 0.35967,0.42788 0.53537,0.56948 0.11989,0.0941 0.30696,0.1881 0.56328,0.28525 0.17053,0.0682 0.3545,0.10335 0.54673,0.10335 0.32453,0 0.60772,-0.11472 0.83923,-0.34726 0.23564,-0.23358 0.35243,-0.48369 0.35243,-0.75551 0,-0.18294 -0.0455,-0.339 -0.13333,-0.46922 -0.0878,-0.12919 -0.26354,-0.25632 -0.53019,-0.38344 -0.13126,-0.0641 -0.45682,-0.16743 -0.97669,-0.30903 -0.52296,-0.14469 -0.83716,-0.23874 -0.94671,-0.28629 -0.24495,-0.10335 -0.46095,-0.24804 -0.65112,-0.43098 -0.18914,-0.185 -0.3328,-0.3917 -0.43099,-0.62218 -0.13642,-0.3266 -0.2036,-0.60978 -0.2036,-0.84646 0,-0.43615 0.0589,-0.79582 0.17363,-1.0728 0.11473,-0.28009 0.27492,-0.52504 0.48266,-0.73691 0.15193,-0.16226 0.3793,-0.31006 0.68523,-0.44235 0.30386,-0.13333 0.63252,-0.19844 0.98185,-0.19844 0.49299,0 0.93018,0.0393 1.30432,0.11266 0.3762,0.0734 0.69349,0.18603 0.95394,0.33589 0.032,0.13333 0.0755,0.43615 0.13333,0.91468 0.0568,0.47439 0.0858,0.75757 0.0858,0.84336 0,0.0413 -0.008,0.0827 -0.0238,0.12919 -0.13643,0.0475 -0.25115,0.0713 -0.339,0.0713 -0.0527,0 -0.12816,-0.006 -0.22944,-0.0176 -0.0475,-0.0796 -0.10956,-0.2005 -0.18604,-0.35966 -0.25114,-0.51057 -0.50746,-0.87024 -0.77101,-1.08004 -0.26458,-0.20877 -0.56534,-0.31213 -0.90951,-0.31213 -0.35966,0 -0.66455,0.11472 -0.9064,0.3452 -0.1788,0.16433 -0.26665,0.39171 -0.26665,0.6811 0,0.1881 0.093,0.38034 0.28216,0.57464 0.1819,0.2036 0.49919,0.3545 0.95187,0.45682 0.68317,0.16846 1.18443,0.33383 1.50999,0.50126 0.46612,0.24184 0.79685,0.52503 0.98702,0.85266 0.18914,0.32763 0.28525,0.70487 0.28525,1.13585 0,0.66559 -0.22737,1.2237 -0.68316,1.66915 -0.45579,0.44441 -1.12241,0.66559 -1.99781,0.66559 -0.11472,0 -0.41341,-0.0289 -0.89607,-0.0847 -0.21807,-0.03 -0.47749,-0.0889 -0.77308,-0.17467 -0.0744,-0.0227 -0.26355,-0.10542 -0.57051,-0.25011 -0.0589,-0.0351 -0.0992,-0.0765 -0.12299,-0.12402 -0.0207,-0.0507 -0.0589,-0.29249 -0.10335,-0.72244 -0.0827,-0.70487 -0.12816,-1.12344 -0.13436,-1.26194"
       id="path365"
       style="stroke-width:0.264583" />
    <path
       fill-rule="nonzero"
       fill="#000003"
       fill-opacity="1"
       d="m 175.86705,135.58928 c 0.61082,-0.28629 1.05317,-0.56947 1.32602,-0.84336 0.27182,-0.27389 0.56224,-0.72244 0.87436,-1.34152 h 0.43202 c 0.0486,0.14986 0.0724,0.30696 0.0724,0.47129 0,0.30076 -0.003,0.53123 -0.008,0.6997 l -0.0238,0.50643 c 0,0.03 0.002,0.0951 0.008,0.19843 l 0.17776,0.008 c 0.0269,0 0.27285,-0.008 0.73381,-0.0289 0.0372,0 0.23151,-0.006 0.58394,-0.0155 0.032,0.15399 0.0486,0.28938 0.0486,0.40721 0,0.13229 -0.0196,0.28629 -0.0538,0.45992 -0.17363,0.0351 -0.30385,0.0537 -0.3917,0.0537 -0.0403,0 -0.12609,-0.0124 -0.25115,-0.0362 h -0.40514 l -0.1385,-0.008 -0.3762,0.0258 -0.0165,3.30006 c -0.005,0.63768 0.005,1.03559 0.0351,1.19476 0.0289,0.15916 0.0909,0.30902 0.18397,0.45372 0.11989,0.062 0.25322,0.0951 0.39688,0.0951 0.14159,0 0.24597,-0.0155 0.31522,-0.0444 0.0662,-0.0269 0.18087,-0.11266 0.34107,-0.24805 0.032,-0.0289 0.0827,-0.0703 0.14986,-0.12092 0.12506,0.10955 0.22634,0.21807 0.30386,0.32763 l 0.032,0.10335 c -0.1819,0.31833 -0.43718,0.56844 -0.76584,0.75138 -0.32763,0.18293 -0.68006,0.27491 -1.05007,0.27491 -0.48265,0 -0.87229,-0.17156 -1.17098,-0.51056 -0.30179,-0.339 -0.45062,-0.86403 -0.45062,-1.57716 l 0.032,-1.52239 v -2.45877 l -0.24288,-0.0186 -0.56844,0.0186 -0.10129,-0.0444 c -0.032,-0.0506 -0.0475,-0.10025 -0.0475,-0.14469 0,-0.0351 0.005,-0.16536 0.0155,-0.38654 z m 4.84829,6.11642 c 0.0692,-0.062 0.15812,-0.10955 0.26665,-0.13849 0.26665,-0.062 0.52089,-0.17674 0.76067,-0.3452 0.0455,-0.13849 0.0693,-0.60461 0.0693,-1.40043 0,-1.46038 -0.0289,-2.44843 -0.0858,-2.96106 -0.0104,-0.091 -0.0527,-0.17157 -0.12506,-0.24185 -0.13023,-0.0734 -0.30696,-0.14159 -0.5302,-0.1974 -0.10439,-0.03 -0.16536,-0.092 -0.18707,-0.18914 l -0.0165,-0.31522 c 0.38758,-0.0589 0.73381,-0.20361 1.048,-0.43615 0.31213,-0.23358 0.54674,-0.47232 0.70177,-0.71417 0.0858,-0.13022 0.1571,-0.23254 0.21911,-0.30076 l 0.5519,-0.0176 c 0.0155,0.13229 0.0238,0.24184 0.0238,0.32762 0,0.0641 0,0.1416 0,0.23565 0,0.2005 0,0.36897 0,0.50126 0,0.062 0,0.30076 0,0.71624 0.21394,-0.40101 0.36794,-0.6687 0.46716,-0.80719 0.0455,-0.062 0.18396,-0.2036 0.41341,-0.42271 0.1757,-0.14366 0.3731,-0.21498 0.59738,-0.21498 0.27388,0 0.51159,0.10336 0.71417,0.31316 0.20257,0.20567 0.30385,0.44752 0.30385,0.71934 0,0.27078 -0.0765,0.51263 -0.22944,0.7307 -0.154,0.21601 -0.35657,0.32453 -0.60978,0.32453 -0.22428,0 -0.45889,-0.10542 -0.70177,-0.31833 -0.14366,-0.12919 -0.26148,-0.1943 -0.34933,-0.1943 l -0.0558,0.008 c -0.10956,0.0413 -0.20878,0.15089 -0.29869,0.32762 -0.14676,0.28629 -0.21911,0.58705 -0.21911,0.89711 l 0.0165,0.23254 c 0.0207,0.42478 0.0372,1.4242 0.0475,2.9931 0.0165,0.14159 0.0641,0.28629 0.14883,0.43098 0.0941,0.0796 0.19017,0.13849 0.28628,0.17053 0.0951,0.0351 0.26355,0.0651 0.50333,0.0889 0.24081,0.0238 0.38654,0.0589 0.44029,0.10852 0.0506,0.0506 0.0775,0.13022 0.0775,0.23874 0,0.0651 -0.0165,0.1478 -0.0486,0.25425 h -0.73278 l -1.49345,-0.0713 c -0.3762,0 -0.71726,0.0124 -1.02732,0.0382 h -0.13333 c -0.0341,0 -0.30592,0.0124 -0.81338,0.0331 -0.0155,-0.092 -0.0238,-0.15916 -0.0238,-0.20671 0,-0.0475 0.008,-0.11162 0.0238,-0.1974 z m 6.0327,-4.14652 c 0.13643,-0.48885 0.25632,-0.81648 0.3607,-0.97565 0.29042,-0.47542 0.60255,-0.84336 0.93328,-1.10587 0.33073,-0.26562 0.62942,-0.44235 0.89607,-0.52814 0.34416,-0.10955 0.62115,-0.16536 0.83406,-0.16536 0.49092,0 0.88573,0.0413 1.18959,0.12402 0.30179,0.0858 0.555,0.20361 0.75757,0.35967 0.29043,0.22428 0.52504,0.45165 0.70177,0.6811 0.1788,0.23047 0.32246,0.50126 0.43408,0.81132 0.11266,0.31006 0.17364,0.68729 0.18397,1.12964 l -0.8661,-0.0155 c -0.23978,0 -0.76791,-0.0259 -1.5813,-0.0734 -0.30178,-0.0289 -0.50952,-0.0444 -0.62425,-0.0444 -0.0372,0 -0.32039,0.006 -0.84542,0.0176 h -0.6718 c -0.0134,0.0806 -0.0196,0.1509 -0.0196,0.20671 0,0.30696 0.0351,0.62839 0.10129,0.96738 0.0703,0.3359 0.17156,0.63459 0.30696,0.89091 0.13642,0.25941 0.30385,0.47749 0.50436,0.66352 0.19947,0.18604 0.40824,0.31833 0.62115,0.39791 l 0.45578,0.16536 c 0.39998,0 0.66973,-0.0145 0.80616,-0.0444 0.25011,-0.0589 0.47129,-0.13229 0.66146,-0.22117 0.18913,-0.0909 0.42064,-0.24495 0.69246,-0.45992 0.185,0.14986 0.33693,0.28628 0.45889,0.40721 -0.45889,0.56017 -0.93328,0.96428 -1.42421,1.21439 -0.49299,0.25115 -1.04283,0.37724 -1.65054,0.37724 -0.41031,0 -0.74621,-0.0413 -1.00769,-0.12092 -0.34727,-0.10232 -0.66456,-0.26148 -0.94465,-0.47439 -0.28008,-0.21497 -0.52193,-0.47749 -0.72554,-0.79582 -0.20257,-0.31626 -0.35449,-0.64285 -0.45268,-0.97668 -0.13126,-0.43925 -0.19534,-0.79065 -0.19534,-1.05523 0,-0.50127 0.0382,-0.95292 0.10956,-1.35703 z m 4.54753,-0.35966 c -0.005,-0.32453 -0.062,-0.63356 -0.17053,-0.92915 -0.11266,-0.29455 -0.28009,-0.52503 -0.50954,-0.68936 -0.22944,-0.16536 -0.46198,-0.24805 -0.69659,-0.24805 -0.34933,0 -0.66353,0.17054 -0.94671,0.50953 -0.28216,0.34003 -0.44029,0.80306 -0.47749,1.3839 l 1.7849,0.0176 c 0.11472,0 0.27388,-0.009 0.48472,-0.0269 0.14987,-0.0145 0.25632,-0.0207 0.3204,-0.0207 0.0455,0 0.11679,0 0.21084,0.003"
       id="path367"
       style="stroke-width:0.264583" />
    <path
       fill-rule="nonzero"
       fill="#000003"
       fill-opacity="1"
       d="m 101.20701,147.62989 h 0.4992 c 0.0382,0.0641 0.0661,0.11162 0.0827,0.14366 0.14779,0.28628 0.26355,0.47542 0.34416,0.56327 0.0713,0.0124 0.43718,0.0176 1.10691,0.0176 0.41238,0 0.78135,-0.002 1.10381,-0.005 l 0.16226,-0.0124 0.97772,-0.008 1.82211,0.008 h 2.49494 l 0.47646,-0.0703 c 0.0682,-0.0537 0.14262,-0.1974 0.22221,-0.42788 0.0227,-0.0527 0.0527,-0.12712 0.0909,-0.22117 l 0.35243,-0.006 c 0.0548,0 0.13539,0.003 0.24288,0.006 0.005,0.3979 0.008,0.99735 0.008,1.79627 l 0.008,0.76894 -0.008,0.44235 c 0,0.1478 -0.0114,0.27802 -0.0331,0.38654 -0.22324,0.0765 -0.41858,0.12092 -0.58704,0.1385 -0.14056,-0.22325 -0.29146,-0.54467 -0.45682,-0.96739 -0.16227,-0.42168 -0.26665,-0.65732 -0.31109,-0.70176 -0.0631,-0.0734 -0.14056,-0.12299 -0.22531,-0.14366 -0.13023,-0.03 -0.6997,-0.0444 -1.71256,-0.0444 -0.15193,0 -0.339,0.0114 -0.56431,0.0351 -0.0227,0.22428 -0.0331,0.40721 -0.0331,0.55191 v 3.70313 l 0.0238,2.74299 -0.008,1.12344 c 0,0.39791 0.0331,0.69867 0.0971,0.89917 0.0879,0.0413 0.24804,0.0775 0.48162,0.11266 0.0434,0.006 0.24185,0.0527 0.60255,0.13849 0.16226,0.0382 0.30592,0.0858 0.42995,0.13539 0.0279,0.20671 0.0413,0.33073 0.0413,0.37724 0,0.0506 -0.008,0.12402 -0.0248,0.22118 -0.11886,0.006 -0.21498,0.009 -0.29146,0.009 -0.55397,0 -1.02733,-0.0207 -1.41593,-0.062 -0.38758,-0.0413 -1.09037,-0.062 -2.1115,-0.062 -0.15916,0 -0.63562,0.0351 -1.42317,0.10645 -0.30592,0.0238 -0.50643,0.0351 -0.59738,0.0351 -0.003,-0.0858 -0.008,-0.15296 -0.0114,-0.1974 l -0.005,-0.20051 v -0.0682 c 0.11783,-0.16743 0.34107,-0.29146 0.6718,-0.37104 0.5581,-0.14469 0.94671,-0.27492 1.16478,-0.38964 0.0486,-0.10852 0.0817,-0.25321 0.0899,-0.43305 0.0362,-0.69349 0.0558,-1.79317 0.0558,-3.30315 l -0.0331,-3.27009 c 0,-0.9002 -0.0165,-1.4459 -0.0496,-1.63711 -0.008,-0.0506 -0.0279,-0.0889 -0.0548,-0.11472 -0.0279,-0.0269 -0.0641,-0.0413 -0.11369,-0.0475 -0.16536,-0.0238 -0.70693,-0.0351 -1.62367,-0.0351 -0.50746,0 -0.84336,0.0496 -1.01596,0.15296 -0.23151,0.14469 -0.57567,0.53123 -1.03869,1.16479 -0.13436,0.18293 -0.23358,0.27492 -0.29973,0.27492 -0.24804,-0.13643 -0.40721,-0.24805 -0.47955,-0.33383 0.16536,-0.37724 0.39687,-1.12655 0.69143,-2.2562 0.0858,-0.32659 0.14882,-0.55087 0.18396,-0.66559 z m 9.05888,11.69541 0.0165,-0.59325 c 0.10128,-0.0351 0.28112,-0.0796 0.5395,-0.13229 0.41341,-0.0858 0.66352,-0.16226 0.75137,-0.23048 0.0879,-0.0672 0.19534,-0.23254 0.32557,-0.49196 l 1.62677,-4.57129 1.90479,-5.37539 c 0.1819,0 0.35243,0 0.5178,0 h 0.36897 l 0.0713,0.15607 1.3994,3.55947 c 0.31626,0.75447 0.59945,1.48932 0.85059,2.19935 0.25322,0.71107 0.46819,1.29191 0.65009,1.74356 0.10646,0.27079 0.25529,0.6749 0.44236,1.2175 0.0971,0.29455 0.24287,0.66352 0.44131,1.10587 0.10956,0.24185 0.19017,0.38034 0.24495,0.42168 0.0992,0.0858 0.25631,0.1447 0.47645,0.17157 0.22015,0.0289 0.45992,0.0941 0.71314,0.1974 0.0269,0.19431 0.0413,0.3359 0.0413,0.42995 0,0.0413 -0.003,0.10335 -0.008,0.19224 -0.39997,0 -0.83715,-0.0207 -1.31671,-0.062 -0.47852,-0.0413 -0.90847,-0.062 -1.29088,-0.062 -0.42374,0 -0.73277,0.006 -0.91984,0.0176 l -1.37149,0.0713 -0.39584,0.0176 c 0,-0.20051 0.008,-0.39584 0.0248,-0.57878 l 0.89504,-0.20567 c 0.26975,-0.0744 0.42684,-0.13333 0.46715,-0.17157 0.0558,-0.0589 0.0827,-0.12402 0.0827,-0.1974 0,-0.0765 -0.0134,-0.15296 -0.0413,-0.23254 l -0.32143,-0.84646 -0.63355,-1.69602 h -3.08095 c -0.11265,0.27388 -0.34933,0.94981 -0.70797,2.02261 -0.10128,0.30386 -0.15399,0.51056 -0.15399,0.62012 0,0.14986 0.0393,0.25631 0.11265,0.32143 0.12403,0.10852 0.3607,0.185 0.71107,0.22944 0.0496,0.0124 0.23978,0.0444 0.57258,0.0971 0.005,0.20361 0.008,0.3452 0.008,0.42478 0,0.062 -0.005,0.12712 -0.0165,0.19534 -0.3328,0 -1.12862,-0.0444 -2.38435,-0.13333 l -0.33073,0.062 c -0.39895,0.0713 -0.77619,0.10646 -1.13689,0.10646 z m 3.79098,-4.85759 c 1.25884,0.0186 1.99885,0.0269 2.22416,0.0269 l 0.20153,-0.008 c -0.15916,-0.51366 -0.37207,-1.11208 -0.62735,-1.79317 -0.25941,-0.6842 -0.47129,-1.20613 -0.63045,-1.56373 z m 7.95197,4.31188 c 0.13953,-0.0796 0.34623,-0.13849 0.62219,-0.17673 0.27492,-0.0382 0.51986,-0.10025 0.7431,-0.18604 0.0248,-0.11472 0.0413,-0.1974 0.0465,-0.25114 0.0114,-0.0796 0.0165,-0.35657 0.0165,-0.82476 l -0.008,-1.92649 0.0217,-1.03457 -0.0134,-0.80202 0.0134,-0.46302 c 0.0145,-0.62838 0.0196,-1.21543 0.0196,-1.76113 0,-1.19683 -0.0103,-1.9606 -0.0331,-2.29443 l -0.47336,-0.10232 c -0.43201,-0.03 -0.7214,-0.0568 -0.86506,-0.0858 l -0.0165,-0.51367 0.0331,-0.0941 c 0.26768,-0.0444 0.51573,-0.0682 0.74104,-0.0682 0.12402,0 0.37413,-0.003 0.75137,-0.008 0.38551,0.0289 0.59531,0.0444 0.62839,0.0444 l 0.42684,-0.0269 1.00769,-0.0506 c 0.63046,-0.0672 1.29398,-0.10025 1.99265,-0.10025 1.10174,0 1.97714,0.30075 2.62929,0.9033 0.65009,0.60152 0.97462,1.28778 0.97462,2.06396 0,0.58084 -0.1726,1.10898 -0.52296,1.58336 -0.34934,0.47439 -0.88677,0.832 -1.61024,1.07384 0.063,0.12092 0.14883,0.26252 0.25631,0.42478 0.22531,0.34417 0.40721,0.63976 0.54467,0.8785 l 1.28571,2.23552 c 0.32246,0.58911 0.53124,0.93431 0.63045,1.03456 0.0992,0.10026 0.30283,0.21291 0.61392,0.33073 0.24288,0.0971 0.42685,0.19431 0.55397,0.29146 0.0331,0.0971 0.0496,0.18293 0.0496,0.25735 0,0.0496 -0.003,0.11472 -0.008,0.1943 h -0.21808 l -0.16226,0.008 -0.41858,-0.0465 h -0.33073 c -0.1726,-0.0207 -0.38551,-0.0331 -0.63562,-0.0331 l -0.80615,-0.008 c -0.061,0 -0.24805,0.0145 -0.56534,0.0465 -0.14573,0.0124 -0.26149,0.0238 -0.34624,0.0331 l -0.27595,-0.56637 c -0.22531,-0.43098 -0.3824,-0.75241 -0.47335,-0.96429 -0.23668,-0.55707 -0.64389,-1.44177 -1.21957,-2.6572 -0.26665,-0.56327 -0.45475,-0.8816 -0.5612,-0.95808 -0.1633,-0.12092 -0.44132,-0.17983 -0.83199,-0.17983 -0.10749,0 -0.28939,0.005 -0.54777,0.0176 -0.0217,0.16536 -0.0331,0.36586 -0.0331,0.59531 l 0.0496,1.91409 -0.0579,1.62161 c 0.15192,0.0971 0.34933,0.17157 0.59221,0.22117 0.42064,0.092 0.78134,0.19844 1.08417,0.32453 0,0.28629 -0.0103,0.50126 -0.0331,0.64906 -0.10129,-0.006 -0.16434,-0.009 -0.19224,-0.009 l -0.33073,0.0186 c -1.15652,-0.11265 -1.84485,-0.16846 -2.05879,-0.16846 -0.14056,0 -0.23978,0.003 -0.29766,0.008 l -1.11517,0.0744 c -0.339,0.0382 -0.64699,0.0589 -0.92811,0.0589 h -0.34623 c -0.0114,-0.1447 -0.0165,-0.23565 -0.0165,-0.27699 0,-0.062 0.008,-0.15399 0.0248,-0.26871 z m 3.62562,-5.57692 c 0.25838,0.0124 0.44855,0.0176 0.56741,0.0176 0.91364,0 1.56373,-0.17363 1.94613,-0.524 0.38241,-0.3514 0.57568,-0.82062 0.57568,-1.40456 0,-0.36277 -0.0465,-0.70487 -0.14056,-1.0232 -0.0941,-0.31832 -0.20877,-0.55397 -0.34933,-0.71003 -0.19844,-0.22428 -0.45992,-0.39274 -0.77929,-0.50746 -0.23667,-0.0858 -0.61391,-0.13023 -1.13481,-0.13023 -0.24701,0 -0.45992,0.0155 -0.63562,0.0444 l -0.0165,0.16227 0.0165,1.16478 -0.0279,0.70487 0.0114,0.94051 c -0.0134,0.26252 -0.0248,0.60462 -0.0331,1.0232 z m 7.87652,6.12263 v -0.61909 c 0.10749,-0.0362 0.28732,-0.0858 0.53744,-0.14779 0.35243,-0.0941 0.61391,-0.18914 0.78755,-0.28939 0.0961,-0.17673 0.14572,-0.42478 0.14572,-0.74311 l -0.008,-1.01699 0.0165,-1.973 -0.008,-0.46612 c 0.0331,-1.14102 0.0496,-1.72806 0.0496,-1.76321 l -0.008,-1.15031 0.0165,-0.46612 -0.0248,-0.98496 -0.0165,-0.37103 c -0.005,-0.0558 -0.0248,-0.1509 -0.0579,-0.27699 -0.22014,-0.10955 -0.58084,-0.17777 -1.079,-0.20671 -0.11885,-0.003 -0.21187,-0.009 -0.28422,-0.0176 l -0.0165,-0.76172 2.30477,0.10646 c 0.28422,0.0124 0.45992,0.0176 0.53124,0.0176 0.31729,0 0.82372,-0.0227 1.52239,-0.0703 0.3917,-0.03 0.63872,-0.0475 0.74104,-0.0538 0.003,0.10956 0.005,0.20154 0.005,0.27802 0,0.0971 -0.005,0.22428 -0.0134,0.38034 -0.21497,0.0796 -0.46302,0.15296 -0.74104,0.22428 -0.27802,0.0703 -0.50643,0.14469 -0.68213,0.21497 -0.0331,0.14986 -0.0496,0.36897 -0.0496,0.64906 0,0.24701 0.008,0.45062 0.0248,0.60461 -0.0165,0.97565 -0.0248,1.72496 -0.0248,2.24689 l 0.008,2.28203 -0.0165,1.15962 0.008,1.72806 v 0.3266 c 0,0.0475 0.008,0.11265 0.0248,0.2005 0.33073,0.0744 0.63045,0.12713 0.9002,0.154 0.0496,0.006 0.21498,0.0289 0.49506,0.0703 0.0227,0.17466 0.0331,0.31936 0.0331,0.43408 0,0.062 -0.002,0.15916 -0.008,0.29146 -0.0682,0 -0.12299,0.003 -0.16226,0.009 -0.17053,0.0114 -0.26975,0.0176 -0.29663,0.0176 -0.0393,0 -0.10748,-0.009 -0.2098,-0.0269 -0.0775,-0.008 -0.43512,-0.0496 -1.0759,-0.11472 l -1.42938,-0.0176 c -0.28628,0 -0.69969,0.0269 -1.24436,0.0827 -0.35554,0.0351 -0.58705,0.0527 -0.69453,0.0589 z m 6.37687,0.0527 0.0165,-0.62839 c 0.11886,-0.0289 0.31419,-0.0734 0.58911,-0.12919 0.27285,-0.0589 0.5457,-0.12402 0.82062,-0.2005 l 0.15193,-0.10336 c 0.0496,-0.23047 0.0744,-0.46612 0.0744,-0.70796 v -0.0496 l -0.0279,-1.99678 0.008,-0.83716 -0.03,-1.233 0.0165,-1.46864 -0.0971,-2.89285 c -0.0796,-0.0734 -0.34107,-0.14779 -0.77928,-0.22428 -0.10646,-0.0207 -0.26355,-0.062 -0.46716,-0.12712 l -0.19327,-0.0765 v -0.59531 l 1.06247,0.0413 c 0.64492,0.0672 1.59163,0.10025 2.8422,0.10025 0.63046,0 1.28261,-0.0176 1.96577,-0.0537 l 0.154,-0.008 0.39377,0.008 0.15917,-0.008 h 0.339 l 1.4428,-0.0537 c 0.0631,0 0.14883,-0.005 0.25322,-0.0176 0.10438,-0.0114 0.2005,-0.0207 0.29455,-0.0258 0.03,0.17363 0.0527,0.34417 0.0631,0.51883 l 0.11575,1.62471 c 0,0.17053 -0.0165,0.30386 -0.0465,0.39481 -0.19843,0.03 -0.34106,0.0444 -0.43511,0.0444 -0.11059,0 -0.19534,-0.0258 -0.26148,-0.0765 -0.0331,-0.0351 -0.0941,-0.16536 -0.18501,-0.39274 -0.22531,-0.58084 -0.41547,-0.92501 -0.57257,-1.03456 -0.15916,-0.10646 -0.59738,-0.15917 -1.32085,-0.15917 l -1.10691,0.0351 c -0.47129,0.006 -0.84232,0.0351 -1.11518,0.0858 -0.0579,0.0114 -0.14366,0.0413 -0.25631,0.0858 -0.0692,0.13229 -0.10232,0.30386 -0.10232,0.51263 l 0.0165,1.02939 -0.0165,1.17926 c 0,0.59841 0.0196,0.96738 0.0558,1.10588 0.0465,0.0351 0.0879,0.0558 0.11782,0.062 l 0.57258,0.009 h 0.96634 c 0.21498,0 0.54261,-0.03 0.98909,-0.0858 0.30489,-0.0413 0.49506,-0.0889 0.56431,-0.13849 0.12919,-0.094 0.22014,-0.20981 0.27802,-0.3514 0.0548,-0.14159 0.0961,-0.48576 0.12402,-1.03456 0.0279,0 0.0992,-0.003 0.21704,-0.009 0.0744,-0.005 0.12713,-0.008 0.154,-0.008 0.0579,0 0.17673,0.008 0.35243,0.0258 l -0.0465,1.38079 c -0.003,0.29456 -0.0114,0.54778 -0.0248,0.76068 l 0.0165,0.18914 c 0.005,0.0589 0.008,0.48266 0.008,1.27951 0,0.0496 -0.003,0.13539 -0.008,0.25631 -0.10439,0.0238 -0.18397,0.0351 -0.24495,0.0351 -0.0444,0 -0.14883,-0.0176 -0.31626,-0.0527 -0.0496,-0.10645 -0.10438,-0.26562 -0.16226,-0.47232 -0.12402,-0.45062 -0.25632,-0.71624 -0.40204,-0.78962 -0.25942,-0.13849 -1.06867,-0.2067 -2.4319,-0.2067 -0.1974,0 -0.42891,0.0207 -0.69349,0.0589 -0.0362,0.24184 -0.0548,0.52193 -0.0548,0.83716 l 0.0382,2.59208 c 0.005,0.47853 0.0548,0.77309 0.14573,0.88264 0.0579,0.0672 0.25941,0.13849 0.60358,0.20567 l 0.15916,0.0176 c 0.24288,0.0186 0.45475,0.0537 0.63665,0.11265 l 0.21704,0.0527 c 0.0217,0.1478 0.0331,0.26252 0.0331,0.3452 0,0.0858 -0.008,0.1943 -0.0248,0.32763 l -0.154,-0.009 -0.24805,0.009 -1.14515,-0.062 c -0.12712,-0.006 -0.72967,-0.009 -1.8035,-0.009 -0.29456,0 -0.57775,0.0176 -0.84543,0.0537 -0.42375,0.0527 -0.65526,0.0796 -0.6935,0.0796 -0.34726,0 -0.58704,-0.003 -0.71623,-0.009 z m 8.23516,-0.0527 0.0165,-0.59325 c 0.10232,-0.0351 0.28112,-0.0796 0.5395,-0.13229 0.41341,-0.0858 0.66352,-0.16226 0.75137,-0.23048 0.0889,-0.0672 0.19638,-0.23254 0.32557,-0.49196 l 1.62677,-4.57129 1.90583,-5.37539 c 0.18086,0 0.35243,0 0.51676,0 h 0.36897 l 0.0724,0.15607 1.39836,3.55947 c 0.31626,0.75447 0.60048,1.48932 0.85059,2.19935 0.25322,0.71107 0.46819,1.29191 0.65009,1.74356 0.10749,0.27079 0.25632,0.6749 0.44339,1.2175 0.0961,0.29455 0.24184,0.66352 0.44028,1.10587 0.10956,0.24185 0.19017,0.38034 0.24495,0.42168 0.0992,0.0858 0.25631,0.1447 0.47645,0.17157 0.22015,0.0289 0.45992,0.0941 0.71314,0.1974 0.0269,0.19431 0.0413,0.3359 0.0413,0.42995 0,0.0413 -0.003,0.10335 -0.008,0.19224 -0.39894,0 -0.83715,-0.0207 -1.31671,-0.062 -0.47852,-0.0413 -0.90847,-0.062 -1.29088,-0.062 -0.42374,0 -0.73277,0.006 -0.91984,0.0176 l -1.37046,0.0713 -0.39687,0.0176 c 0,-0.20051 0.008,-0.39584 0.0248,-0.57878 l 0.89504,-0.20567 c 0.26975,-0.0744 0.42684,-0.13333 0.46818,-0.17157 0.0548,-0.0589 0.0827,-0.12402 0.0827,-0.1974 0,-0.0765 -0.0145,-0.15296 -0.0413,-0.23254 l -0.32247,-0.84646 -0.63355,-1.69602 h -3.08095 c -0.11265,0.27388 -0.34933,0.94981 -0.70693,2.02261 -0.10232,0.30386 -0.15503,0.51056 -0.15503,0.62012 0,0.14986 0.0393,0.25631 0.11369,0.32143 0.12402,0.10852 0.3607,0.185 0.71003,0.22944 0.0496,0.0124 0.23978,0.0444 0.57258,0.0971 0.005,0.20361 0.008,0.3452 0.008,0.42478 0,0.062 -0.005,0.12712 -0.0165,0.19534 -0.3328,0 -1.12862,-0.0444 -2.38435,-0.13333 l -0.33073,0.062 c -0.39895,0.0713 -0.77619,0.10646 -1.13689,0.10646 z m 3.79098,-4.85759 c 1.25884,0.0186 1.99885,0.0269 2.22519,0.0269 l 0.20051,-0.008 c -0.15917,-0.51366 -0.37104,-1.11208 -0.62736,-1.79317 -0.25941,-0.6842 -0.47129,-1.20613 -0.63045,-1.56373 z m 0,0"
       id="path369"
       style="stroke-width:0.264583" />
  </g>
</svg>
