<?xml version="1.0" encoding="UTF-8" standalone="no"?>
<!-- Created with Inkscape (http://www.inkscape.org/) -->

<svg
   width="210mm"
   height="297mm"
   viewBox="0 0 210 297"
   version="1.1"
   id="svg799"
   inkscape:version="1.2.2 (b0a8486541, 2022-12-01)"
   sodipodi:docname="aventura-ecuestre-favicon.svg"
   xmlns:inkscape="http://www.inkscape.org/namespaces/inkscape"
   xmlns:sodipodi="http://sodipodi.sourceforge.net/DTD/sodipodi-0.dtd"
   xmlns="http://www.w3.org/2000/svg"
   xmlns:svg="http://www.w3.org/2000/svg">
  <sodipodi:namedview
     id="namedview801"
     pagecolor="#ffffff"
     bordercolor="#000000"
     borderopacity="0.25"
     inkscape:showpageshadow="2"
     inkscape:pageopacity="0.0"
     inkscape:pagecheckerboard="0"
     inkscape:deskcolor="#d1d1d1"
     inkscape:document-units="mm"
     showgrid="false"
     inkscape:zoom="0.69931958"
     inkscape:cx="85.082702"
     inkscape:cy="562.6898"
     inkscape:window-width="1854"
     inkscape:window-height="1011"
     inkscape:window-x="0"
     inkscape:window-y="0"
     inkscape:window-maximized="1"
     inkscape:current-layer="layer1" />
  <defs
     id="defs796" />
  <g
     inkscape:label="Capa 1"
     inkscape:groupmode="layer"
     id="layer1">
    <ellipse
       style="fill:#000000;stroke-width:0.264583"
       id="path1670"
       cx="80.219261"
       cy="165.81366"
       rx="41.17865"
       ry="39.103203" />
    <path
       style="fill:#000000;stroke-width:1.42996"
       d="M 285.2773,772.80036 C 243.2715,767.6235 205.84279,747.23918 180.55487,715.7667 133.60531,657.33486 138.65856,576.88361 192.55703,524.68403 c 6.5601,-6.35332 15.78834,-14.14865 20.50722,-17.32296 47.22499,-31.76746 108.63987,-36.38745 159.09262,-11.96787 39.99798,19.35937 70.62704,55.35992 81.15673,95.38939 17.09167,64.97528 -15.13518,134.0635 -77.0771,165.23858 -28.06773,14.12636 -61.87761,20.36325 -90.9592,16.77919 z"
       id="path1672"
       transform="scale(0.26458333)" />
    <path
       style="fill:#ff6600;fill-opacity:1;stroke:#000000;stroke-width:0.396876;stroke-dasharray:none;stroke-opacity:1"
       d="m 74.973233,207.68375 c -11.414456,-1.47019 -21.585156,-7.25916 -28.456776,-16.19707 -12.75785,-16.59412 -11.384704,-39.44157 3.26141,-54.26579 1.78261,-1.80428 4.290249,-4.01809 5.572535,-4.91956 14.8199,-10.41873 34.140034,-10.41873 48.959938,0 3.53073,2.48218 8.55017,7.78894 11.04183,11.67387 8.84413,13.78956 8.68791,31.12256 -0.40676,45.13074 -5.81449,8.95583 -16.085449,15.86024 -26.717986,17.96052 -4.058507,0.8017 -9.760594,1.06726 -13.254191,0.61729 z"
       id="path1674" />
    <path
       fill-rule="evenodd"
       fill="#1a1a18"
       fill-opacity="1"
       d="m 86.659668,171.34522 1.83245,0.44132 c -0.5364,0.25218 -1.34049,0.18914 -1.83245,-0.44132 z m -13.44827,-1.76526 c 0.22324,-0.44132 0.75964,-1.00873 1.20612,-1.19786 l 0.66973,1.13481 -0.22324,0.31523 c -0.49093,0.12609 -1.34049,-0.12609 -1.65261,-0.25218 z m -8.35505,0.31522 c -0.49196,0 -0.93844,-0.18913 -1.0728,-0.63045 0.44648,0.0631 0.84853,0.31523 1.0728,0.63045 z m 2.67994,-2.58485 c -0.13333,0.31522 -0.0444,0.25218 -0.35657,0.12609 0.13333,-0.0631 -0.0455,-0.25218 0.35657,-0.12609 z m 14.56655,-2.71095 c 0.0889,-0.44131 0,-0.25218 0.26769,-0.50436 0,-0.0631 0.26768,-0.25218 0.31316,-0.31523 0.0444,0.50436 -0.22325,0.63046 -0.58085,0.81959 z m -12.86846,-0.75654 c -0.0444,-0.63149 -0.0444,-0.37827 0.22324,-0.75654 0.26872,0.0631 0.5364,0.12505 0.7152,0.44028 -0.40204,0.37931 -0.58084,0.31626 -0.93844,0.31626 z m 6.74687,-2.52284 c 0.31316,-0.12609 0.26769,0.18913 0.98289,-0.31523 l 0.3576,-0.37827 c 0.22324,-0.56741 -0.13436,-0.31523 0.22324,-0.63046 0.22324,-0.18913 0.31316,-0.31522 0.67076,-0.37826 0.44649,0.37826 0.17777,0.37826 0.40204,0.75654 0.13333,0.18913 1.65262,0.81959 1.07177,2.08049 -0.1788,0.37931 -1.02732,0.75654 -1.34048,0.94671 -2.6355,1.26091 -3.5295,-1.51308 -2.36782,-2.08152 z m -3.79821,-0.94568 c -0.17777,-0.37828 0.40204,-0.37828 -0.17777,-0.75654 l 0.62528,0.12609 c -0.0899,0.37827 -0.0899,0.50436 -0.44751,0.63045 z m -3.52951,-0.6935 c 0.13436,-0.31523 0.0899,-0.18914 0.26872,-0.37827 0.22324,-0.18914 0.17777,-0.18914 0.40204,-0.31523 l -0.1788,0.56741 z m 4.37907,-1.07177 c -0.35761,0 -0.40205,0 -0.67076,-0.12609 -0.22325,-0.12609 -0.22325,-0.25218 -0.31213,-0.31523 0.80408,0 0.89297,-0.25218 0.98289,0.44132 z m -1.16169,-1.45004 c 0.80408,-0.56741 0.22324,0.0631 1.42937,-0.94568 l 0.1788,-0.12609 c -0.0444,0.81959 -0.0889,0.44132 -0.40204,0.94568 -0.0444,0.0631 -0.0444,0.0631 -0.0444,0.12609 -0.0445,0 0,0.31523 -0.0899,0.12609 0,0 -0.0444,0.063 -0.0444,0.12609 -0.31316,0.0631 -0.49093,-0.12609 -1.02733,-0.25218 z m 3.39514,-7.9437 c 0.67076,-0.18914 1.34049,-0.18914 2.01125,-0.56741 -0.1788,-0.12609 -0.44752,-0.0631 -0.7152,-0.0631 -0.26769,0 -0.5364,0 -0.80409,0 -0.58084,-0.063 -0.80409,-0.25218 -1.42937,-0.37827 -1.34049,-0.31523 -0.894,-0.88263 -2.41329,-0.88263 -1.20613,0 -1.56373,0.75654 -1.47484,2.08049 0.13435,1.2609 0.49196,1.38699 1.38596,1.89136 0.89297,0.44131 0.44648,3.15226 -0.0455,3.9088 -1.11621,1.89136 -2.85874,0.6935 -3.43958,0.63045 l -0.0455,-0.31522 c 0.98289,-0.12609 2.72542,-0.44132 3.35174,-1.19786 -0.31316,-0.18914 -1.43041,0.37827 -2.01125,0.25218 0.44752,-0.56741 2.05569,-1.19786 1.96577,-1.51309 -0.75861,-0.18913 -2.09909,0.75655 -2.9931,0.75655 -1.34048,0.063 -2.18901,-0.0631 -3.26181,0.31522 0.0444,-0.37827 0.49196,-0.75654 0.75964,-0.94568 1.02733,-0.5674 3.12746,0.18914 3.66386,-1.2609 -0.84853,0.25218 -1.16169,0.63045 -2.14457,0.37827 -0.84956,-0.18913 -1.74253,-0.12609 -2.72542,0 0.22324,-0.56741 0.5364,-0.6935 1.07177,-0.88263 l 0.44752,-0.25218 c -0.62632,-0.56741 -1.56373,0.31522 -1.96681,0.69349 -0.44648,0.50437 -1.51825,0.81959 -2.14457,1.00873 0.22428,-0.37827 0.75965,-0.56741 1.0728,-0.81959 -0.3576,-0.31523 -0.66972,-0.25218 -1.16168,0 -0.894,0.37827 -1.92133,2.14354 -2.90422,1.82831 l -0.1788,-0.88263 c -0.49196,0.25218 -0.3576,0.6935 -0.75964,1.19786 -0.93844,1.32395 -0.75964,0.44132 -2.01021,2.71094 -0.22325,0.37828 -0.22325,0.31523 -0.26872,0.6935 0.5364,-0.25218 0.26872,-0.44131 0.93844,-0.5674 -0.0444,2.58485 -1.34048,7.50341 0.93845,7.88168 3.3507,0.56741 1.51929,-2.71197 3.39617,-2.52284 0.75861,1.82935 -0.7152,3.27939 -0.84956,5.99033 -0.0444,0.6935 0.22324,1.387 0.22324,2.14354 -2.18901,1.45004 -4.91442,2.14354 -6.79131,3.90881 -0.80409,0.75654 -2.41226,1.2609 -3.39514,1.9544 -0.71521,0.50436 -2.45773,0.56741 -2.85978,2.58485 0.62529,0 2.36781,0.0631 2.8143,-0.12609 0.67076,-0.37827 0.22428,-1.2609 1.29604,-1.63917 0.35761,-0.12609 0.71521,-0.12609 1.02733,-0.37828 0.49196,-0.31522 1.56477,-2.14353 4.51342,-2.45876 2.05466,-0.25218 5.18315,-0.94568 7.14892,-0.75654 0.26768,1.70222 0.49093,4.53926 0.26768,6.30452 -0.13435,1.26091 0.0444,1.63919 -0.80408,2.45877 -0.31316,0.31523 -1.87689,1.82832 -0.894,2.0805 0.26871,0.063 -0.0889,0 0.22324,0 h 1.788 c 0.1788,-0.31523 0.0889,-0.37827 0.26769,-0.6935 0.3576,-0.63045 0.58084,-1.13482 0.5364,-2.01745 -0.0444,-1.13482 -0.0899,-1.32396 0.22324,-2.64791 0.40204,-1.38699 0.58084,-2.83703 1.0728,-4.22403 0.80409,-2.20658 0.0889,-1.00872 5.40536,-1.70222 0.84956,-0.12609 1.4304,-0.25218 2.23449,-0.37827 5.76399,-0.88263 5.71954,-3.3414 9.78545,-0.37827 1.25057,0.88263 2.23345,1.13481 3.75274,1.51309 l 2.10013,0.50436 c 1.47381,0.44131 2.36781,0.81958 3.127461,2.14353 0.31316,0.56741 0.80408,0.94568 1.02732,1.57614 0.31316,0.81958 0.1788,1.00872 -0.13332,1.82831 -0.26872,0.63045 -0.31316,1.45004 -0.1788,2.26963 0.31212,0.0631 1.65261,-0.31522 2.01021,-0.50436 0,-1.00873 -0.58084,-0.6935 -0.1788,-1.76527 0.31316,-0.81959 -0.0889,-1.26091 0.31316,-1.89136 0.44649,-0.37827 2.14457,0.063 2.76986,-0.75654 -0.22324,-0.44132 -0.49093,-0.37827 -0.93845,-0.75655 -0.22324,-0.18913 -0.62528,-0.5674 -0.89297,-0.63045 -0.5364,-0.12609 -0.894,0.25218 -1.47484,-0.18913 -1.11725,-0.81959 -1.07177,-2.14354 -1.25057,-3.46749 -0.13436,-0.88263 0,-1.63918 -0.84956,-1.95441 l -2.457731,-0.81958 c -0.84853,-0.25219 -1.20613,-0.75655 -1.16169,-1.82832 0.13436,-3.65662 -0.0444,-2.08049 -0.66972,-5.29683 0.98288,0.063 1.34048,0.56844 1.87688,1.0728 0.22325,0.25218 0.49093,0.50437 0.71417,0.6935 l 3.709341,3.40444 c 1.51825,1.51309 3.66385,4.16099 6.299351,4.91753 -0.0889,-0.44131 -0.40204,-0.5674 -0.7152,-0.88263 -0.26768,-0.31523 -0.49092,-0.50436 -0.66973,-0.88263 0.66973,0.31522 0.98289,0.75654 1.74253,1.07176 1.60817,0.75655 5.76399,1.51309 6.97012,0.25219 l -0.49196,-0.18914 c -0.93741,-0.18914 -2.14457,0.12609 -3.03754,-0.12609 l -0.894,-0.25218 c 0.7152,-0.0631 6.92567,0.44132 8.847,-0.56741 -0.31316,-0.31522 0.13333,-0.18913 -0.44648,-0.18913 l -0.26872,0.0631 c -0.0444,0 -0.0889,0 -0.0889,0 -0.31316,0.0631 -0.67076,0 -0.84956,0.0631 -0.40205,0 -0.84853,0.0631 -1.11621,-0.18914 1.16168,-0.44132 1.83141,-0.44132 2.50114,-1.45004 -1.20613,0 -2.05466,0.75654 -3.57395,0.56741 1.25057,-0.56741 3.30626,-0.6935 4.02146,-1.95441 -1.47484,0.25219 -2.45773,0.75655 -4.46794,0.63046 l -3.70934,-0.50436 c -0.49092,-0.063 -0.66972,-0.18914 -1.11621,-0.31523 -1.56372,-0.31523 -2.72541,-0.88264 -4.11034,-1.57613 -1.609201,-0.75655 -4.334621,-3.02617 -5.585191,-4.35116 -2.502171,-2.6479 -4.467941,-0.18913 -7.998481,-1.45004 -3.30625,-1.13481 -6.34483,0.44132 -7.059,0.18914 -1.34048,-0.94568 -0.1788,-2.01745 -0.84956,-2.77399 -0.31212,0.18913 -0.35657,0.31522 -0.71417,0.44131 -0.31315,-0.44131 -0.40204,-1.07176 -0.58084,-1.57613 -0.31316,-0.88263 -2.05569,-3.3414 -2.05569,-3.84576 0.62529,0.81959 3.12746,1.63918 4.20026,1.70222 1.51929,0.1261 3.79719,-0.5674 4.33359,-1.57613 -1.07177,0.25218 -1.92133,0.94568 -3.1719,0.81959 0.1788,-0.25218 0.7152,-0.50436 0.98288,-0.63045 1.60818,-1.00872 -0.1788,-0.37827 -0.894,-0.25218 -0.5364,0.0631 -1.34048,0.0631 -1.83141,-0.25218 0.44648,-0.56741 1.02733,-0.6935 1.16169,-1.63918 -0.84956,0.56741 -0.58085,0.75654 -2.01125,0.75654 0.13436,-0.63045 0.98289,-0.81959 1.16169,-1.45004 -0.35657,-0.12609 -0.49093,0 -0.93742,0.0631 0.26769,-0.50436 0.40205,-0.25218 0.58085,-0.63045 -0.40205,0.12609 -1.56373,0.25218 -2.19005,0.25218 0.22324,-0.31523 0.44752,-0.44132 0.58084,-0.75654 -0.84852,0.25218 -1.56372,0.56741 -2.50217,0.12609"
       id="path391"
       style="stroke-width:0.264583" />
    <path
       fill-rule="evenodd"
       fill="#ffffff"
       fill-opacity="1"
       d="m 78.577828,173.12731 c -0.3576,0.0631 -0.44752,0.18914 -0.67076,0.37827 -0.3576,0.31523 0,0.063 -0.22324,0.63046 l -0.3576,0.37827 c -0.7152,0.50436 -0.66973,0.18914 -0.98289,0.31523 -1.16168,0.56844 -0.26768,3.34243 2.36782,2.08152 0.31316,-0.19017 1.16168,-0.5674 1.34048,-0.94671 0.58085,-1.2609 -0.93844,-1.89136 -1.07177,-2.08049 -0.22427,-0.37828 0.0445,-0.37828 -0.40204,-0.75655"
       id="path393"
       style="stroke-width:0.264583" />
    <path
       fill-rule="evenodd"
       fill="#ffffff"
       fill-opacity="1"
       d="m 73.211398,169.57996 c 0.31212,0.12609 1.16168,0.37827 1.65261,0.25218 l 0.22324,-0.31523 -0.66973,-1.13481 c -0.44648,0.18913 -0.98288,0.75654 -1.20612,1.19786"
       id="path395"
       style="stroke-width:0.264583" />
    <path
       fill-rule="evenodd"
       fill="#ffffff"
       fill-opacity="1"
       d="m 71.870908,157.15901 c 0.5364,0.12609 0.71417,0.31523 1.02733,0.25218 0,-0.0631 0.0444,-0.12609 0.0444,-0.12609 0.0899,0.18914 0.0455,-0.12609 0.0899,-0.12609 0,-0.0631 0,-0.0631 0.0444,-0.12609 0.31316,-0.50436 0.3576,-0.12609 0.40204,-0.94568 l -0.1788,0.12609 c -1.20613,1.00873 -0.62529,0.37827 -1.42937,0.94568"
       id="path397"
       style="stroke-width:0.264583" />
    <path
       fill-rule="evenodd"
       fill="#ffffff"
       fill-opacity="1"
       d="m 69.234378,163.84284 c 0.3576,0 0.5364,0.0631 0.93844,-0.31626 -0.1788,-0.31523 -0.44648,-0.37724 -0.7152,-0.44028 -0.26768,0.37827 -0.26768,0.12505 -0.22324,0.75654"
       id="path399"
       style="stroke-width:0.264583" />
    <path
       fill-rule="evenodd"
       fill="#ffffff"
       fill-opacity="1"
       d="m 86.659668,171.34522 c 0.49196,0.63046 1.29605,0.6935 1.83245,0.44132 z m 0,0"
       id="path401"
       style="stroke-width:0.264583" />
    <path
       fill-rule="evenodd"
       fill="#ffffff"
       fill-opacity="1"
       d="m 72.049708,158.16773 c 0.0889,0.0631 0.0889,0.18914 0.31213,0.31523 0.26871,0.12609 0.31315,0.12609 0.67076,0.12609 -0.0899,-0.6935 -0.17881,-0.44132 -0.98289,-0.44132"
       id="path403"
       style="stroke-width:0.264583" />
    <path
       fill-rule="evenodd"
       fill="#ffffff"
       fill-opacity="1"
       d="m 64.856348,169.89518 c -0.22427,-0.31522 -0.62632,-0.56741 -1.0728,-0.63045 0.13436,0.44132 0.58084,0.63045 1.0728,0.63045"
       id="path405"
       style="stroke-width:0.264583" />
    <path
       fill-rule="evenodd"
       fill="#ffffff"
       fill-opacity="1"
       d="m 72.183038,160.37432 c 0.3576,-0.12609 0.3576,-0.25218 0.44751,-0.63045 l -0.62528,-0.12609 c 0.57981,0.37826 0,0.37826 0.17777,0.75654"
       id="path407"
       style="stroke-width:0.264583" />
    <path
       fill-rule="evenodd"
       fill="#ffffff"
       fill-opacity="1"
       d="m 82.102838,164.59938 c 0.3576,-0.18913 0.62529,-0.31523 0.58085,-0.81959 -0.0455,0.0631 -0.31316,0.25219 -0.31316,0.31523 -0.26769,0.25218 -0.1788,0.0631 -0.26769,0.50436"
       id="path409"
       style="stroke-width:0.264583" />
    <path
       fill-rule="evenodd"
       fill="#ffffff"
       fill-opacity="1"
       d="m 68.653528,159.68082 0.49196,-0.12609 0.1788,-0.56741 c -0.22427,0.12609 -0.1788,0.12609 -0.40204,0.31523 -0.1788,0.18913 -0.13436,0.0631 -0.26872,0.37827"
       id="path411"
       style="stroke-width:0.264583" />
    <path
       fill-rule="evenodd"
       fill="#ffffff"
       fill-opacity="1"
       d="m 67.179718,167.43642 c 0.31213,0.12609 0.22324,0.18913 0.35657,-0.12609 -0.40204,-0.12609 -0.22324,0.0631 -0.35657,0.12609"
       id="path413"
       style="stroke-width:0.264583" />
  </g>
</svg>
